<svg width="517" height="316" viewBox="0 0 517 316" xmlns="http://www.w3.org/2000/svg"><title>Group 6</title><g transform="translate(3 3)" fill="none" fill-rule="evenodd"><circle stroke="#C4E4C7" stroke-width="6" fill="#FFF" fill-rule="nonzero" stroke-linecap="round" stroke-linejoin="round" cx="11" cy="284" r="11"/><circle stroke="#C4E4C7" stroke-width="6" fill="#FFF" fill-rule="nonzero" stroke-linecap="round" stroke-linejoin="round" cx="19" cy="151" r="11"/><circle stroke="#C4E4C7" stroke-width="6" fill="#FFF" fill-rule="nonzero" stroke-linecap="round" stroke-linejoin="round" cx="36" cy="11" r="11"/><path d="M22 284h27.602a20 20 0 0 0 13.015-4.815l23.766-20.37A20 20 0 0 1 99.398 254H163M47 11h27.268a20 20 0 0 1 13.453 5.201L131.28 55.8A20 20 0 0 0 144.732 61H208M31 151h141" stroke="#C4E4C7" stroke-width="6" stroke-linecap="square"/><circle stroke="#C4E4C7" stroke-width="6" fill="#FFF" fill-rule="nonzero" stroke-linecap="round" stroke-linejoin="round" cx="72" cy="108" r="11"/><path stroke="#C4E4C7" stroke-width="6" stroke-linecap="square" d="M84 108h141"/><circle stroke="#C4E4C7" stroke-width="6" fill="#FFF" fill-rule="nonzero" stroke-linecap="round" stroke-linejoin="round" cx="50" cy="211" r="11"/><path stroke="#C4E4C7" stroke-width="6" stroke-linecap="square" d="M62 211h141"/><circle stroke="#C4E4C7" stroke-width="6" fill="#FFF" fill-rule="nonzero" stroke-linecap="round" stroke-linejoin="round" transform="matrix(-1 0 0 1 922 0)" cx="461" cy="299" r="11"/><circle stroke="#C4E4C7" stroke-width="6" fill="#FFF" fill-rule="nonzero" stroke-linecap="round" stroke-linejoin="round" transform="matrix(-1 0 0 1 919 0)" cx="459.5" cy="150" r="11"/><circle stroke="#C4E4C7" stroke-width="6" fill="#FFF" fill-rule="nonzero" stroke-linecap="round" stroke-linejoin="round" transform="matrix(-1 0 0 1 992 0)" cx="496" cy="71" r="11"/><path d="M449 299h-18.602a20 20 0 0 1-13.015-4.815l-23.592-20.222a20 20 0 0 0-13.416-4.81L338 270M485 71h-27.602a20 20 0 0 0-13.015 4.815l-23.766 20.37A20 20 0 0 1 407.602 101H344" stroke="#C4E4C7" stroke-width="6" stroke-linecap="square"/><circle stroke="#C4E4C7" stroke-width="6" fill="#FFF" fill-rule="nonzero" stroke-linecap="round" stroke-linejoin="round" transform="matrix(-1 0 0 1 999 0)" cx="499.5" cy="211" r="11"/><path stroke="#C4E4C7" stroke-width="6" stroke-linecap="square" d="M487.5 211h-141M447.5 150H349"/><g transform="translate(121 30)" fill-rule="nonzero"><path d="M140.4 0c78.1 0 141.4 62.85 141.4 140.4 0 66.5-45.4 118.95-91.45 130.55l-28.599-73.517 31.397-18.16.284-.168a12.364 12.364 0 0 0 5.885-10.534v-40.546c-13.142-2.35-23.118-13.843-23.118-27.667 0-1.921.193-3.797.56-5.61l-29.982-17.342-.32-.18a12.318 12.318 0 0 0-12.017.18l-46.372 26.82-.283.17a12.364 12.364 0 0 0-5.885 10.533v53.642l.004.33a12.362 12.362 0 0 0 6.164 10.373L120.447 198 90.9 270.75C45.8 259.1 0 205.9 0 140.45 0 62.9 62.3 0 140.4 0z" stroke="#23552A" stroke-width="9.606" fill="#3FA648" stroke-linecap="round" stroke-linejoin="round"/><path d="M164.674 158.062a4.014 4.014 0 0 1 4.014 4.015 4.014 4.014 0 0 1-4.014 4.015h-48.16a4.014 4.014 0 0 1-4.013-4.015 4.014 4.014 0 0 1 4.014-4.015h48.16zm-16.053-20.076a4.014 4.014 0 0 1 4.013 4.015 4.014 4.014 0 0 1-4.013 4.015h-32.106a4.014 4.014 0 0 1-4.014-4.015 4.014 4.014 0 0 1 4.014-4.015h32.106zm16.053-20.076a4.014 4.014 0 0 1 4.014 4.015 4.014 4.014 0 0 1-4.014 4.015h-48.16a4.014 4.014 0 0 1-4.013-4.015 4.014 4.014 0 0 1 4.014-4.015h48.16z" fill="#23552A"/><ellipse stroke="#23552A" stroke-width="9.606" fill="#FFF" stroke-linecap="round" stroke-linejoin="round" cx="198.49" cy="105.378" rx="21.59" ry="21.628"/><path d="M205.77 108.235c0 1.117-.198 2.083-.592 2.899a5.794 5.794 0 0 1-1.582 2.023c-.66.532-1.41.932-2.25 1.198-.84.266-1.707.4-2.598.4a8.466 8.466 0 0 1-2.354-.323 7.536 7.536 0 0 1-2.032-.915 6.183 6.183 0 0 1-1.569-1.455 5.823 5.823 0 0 1-.964-1.946l3.935-1.21c.189.635.544 1.159 1.067 1.57.523.413 1.145.62 1.865.62.737 0 1.376-.224 1.916-.67.54-.447.81-1.109.81-1.985 0-.532-.11-.979-.334-1.34a2.59 2.59 0 0 0-.861-.863 3.567 3.567 0 0 0-1.197-.45 7.055 7.055 0 0 0-1.337-.13c-.652 0-1.393.073-2.225.22-.831.146-1.573.339-2.225.58l.438-10.436h11.162v3.71h-7.33l-.154 2.886a5.51 5.51 0 0 1 .913-.142c.334-.025.638-.038.913-.038.909 0 1.766.12 2.572.36s1.505.606 2.096 1.095a5.247 5.247 0 0 1 1.402 1.817c.343.722.514 1.563.514 2.525z" fill="#23552A"/></g></g></svg>