<svg xmlns="http://www.w3.org/2000/svg" width="517" height="316" xmlns:v="https://vecta.io/nano"><style><![CDATA[.B{stroke-linejoin:round}.C{fill:#fff}.D{fill-rule:nonzero}.E{stroke-linecap:square}.F{stroke-width:9.606}]]></style><g fill="none" fill-rule="evenodd"><g stroke="#c4e4c7" stroke-width="6"><g class="B C D"><circle cx="14" cy="287" r="11"/><circle cx="22" cy="154" r="11"/><circle cx="39" cy="14" r="11"/></g><path d="M25 287h27.602a20 20 0 0 0 13.015-4.815l23.766-20.37A20 20 0 0 1 102.398 257H166M50 14h27.268a20 20 0 0 1 13.453 5.201l43.56 39.6a20 20 0 0 0 13.452 5.2H211M34 154h141" class="E"/><circle cx="75" cy="111" r="11" class="B C D"/><path d="M87 111h141" class="E"/><circle cx="53" cy="214" r="11" class="B C D"/><path d="M65 214h141" class="E"/><g class="B C D"><circle transform="matrix(-1 0 0 1 925 3)" cx="461" cy="299" r="11"/><circle transform="matrix(-1 0 0 1 922 3)" cx="459.5" cy="150" r="11"/><circle transform="matrix(-1 0 0 1 995 3)" cx="496" cy="71" r="11"/></g><path d="M452 302h-18.602a20 20 0 0 1-13.015-4.815l-23.592-20.222a20 20 0 0 0-13.416-4.81L341 273M488 74h-27.602a20 20 0 0 0-13.015 4.815l-23.766 20.37A20 20 0 0 1 410.602 104H347" class="E"/><circle transform="matrix(-1 0 0 1 1002 3)" cx="499.5" cy="211" r="11" class="B C D"/><path d="M490.5 214h-141m101-61H352" class="E"/></g><g class="D"><path d="M264.4 33c78.1 0 141.4 62.85 141.4 140.4 0 66.5-45.4 118.95-91.45 130.55l-28.6-73.517 31.68-18.328c3.658-2.25 5.886-6.24 5.885-10.534v-40.546c-13.142-2.35-23.118-13.843-23.118-27.667 0-1.92.193-3.797.56-5.6l-30.302-17.522a12.32 12.32 0 0 0-12.017.18l-46.655 27c-3.658 2.25-5.886 6.238-5.885 10.533l.004 53.972a12.36 12.36 0 0 0 6.164 10.373L244.447 231 214.9 303.75C169.8 292.1 124 238.9 124 173.45 124 95.9 186.3 33 264.4 33z" stroke="#23552a" fill="#3fa648" class="B F"/><path d="M288.674 191.062c1.065 0 2.086.423 2.84 1.176s1.176 1.774 1.175 2.84-.423 2.086-1.175 2.84-1.774 1.176-2.84 1.176h-48.16c-1.065 0-2.085-.423-2.838-1.176s-1.175-1.774-1.175-2.84.423-2.086 1.175-2.84 1.774-1.176 2.84-1.176h48.16zm-16.053-20.076c1.065 0 2.085.423 2.838 1.176s1.175 1.774 1.175 2.84-.422 2.086-1.175 2.84-1.773 1.176-2.838 1.176h-32.106c-1.065 0-2.086-.423-2.84-1.176s-1.176-1.774-1.175-2.84.423-2.086 1.175-2.84 1.774-1.176 2.84-1.176h32.106zm16.053-20.076c1.065 0 2.086.423 2.84 1.176s1.176 1.774 1.175 2.84-.423 2.086-1.175 2.84-1.774 1.176-2.84 1.176h-48.16c-1.065 0-2.085-.423-2.838-1.176s-1.175-1.774-1.175-2.84.423-2.086 1.175-2.84 1.774-1.176 2.84-1.176h48.16z" fill="#23552a"/><ellipse stroke="#23552a" cx="322.49" cy="138.378" rx="21.59" ry="21.628" class="B C F"/><path d="M329.77 141.235c0 1.117-.198 2.083-.592 2.9-.37.784-.9 1.475-1.582 2.023a6.84 6.84 0 0 1-2.25 1.198 8.56 8.56 0 0 1-2.598.4c-.796.004-1.588-.105-2.354-.323-.72-.203-1.404-.51-2.032-.915-.604-.4-1.135-.882-1.57-1.455-.44-.582-.768-1.243-.964-1.946l3.935-1.2a3.06 3.06 0 0 0 1.067 1.57c.523.413 1.145.62 1.865.62.737 0 1.376-.224 1.916-.67s.8-1.11.8-1.985c0-.532-.1-.98-.334-1.34a2.59 2.59 0 0 0-.861-.863c-.37-.22-.774-.373-1.197-.45-.44-.086-.888-.13-1.337-.13-.652 0-1.393.073-2.225.22s-1.573.34-2.225.58l.438-10.436h11.162v3.7h-7.33l-.154 2.886a5.51 5.51 0 0 1 .913-.142l.913-.038c.91 0 1.766.12 2.572.36s1.505.606 2.096 1.095c.596.495 1.074 1.115 1.402 1.817.343.722.514 1.563.514 2.525z" fill="#23552a"/></g></g></svg>