<?xml version="1.0" standalone="no"?>
<!DOCTYPE svg PUBLIC "-//W3C//DTD SVG 1.1//EN" "http://www.w3.org/Graphics/SVG/1.1/DTD/svg11.dtd" >
<svg xmlns="http://www.w3.org/2000/svg" xmlns:xlink="http://www.w3.org/1999/xlink" version="1.1">
<metadata>
Created by FontForge 20170731 at Sun Mar 23 12:29:00 2014
 By Aleksey,,,
Copyright (c) 2014 by www.moslemebrahimi.com. All rights reserved.
</metadata>
<defs>
<font id="IRANSans" horiz-adv-x="0" >
  <font-face 
    font-family="IRAN Sans"
    font-weight="400"
    font-stretch="normal"
    units-per-em="2048"
    panose-1="2 11 4 0 0 0 0 0 0 0"
    ascent="1638"
    descent="-410"
    bbox="-211 -1045 2177 1968.7"
    underline-thickness="60"
    underline-position="-770"
    unicode-range="U+0020-FEFC"
  />
<missing-glyph horiz-adv-x="1024" 
d="M128 0v1343h768v-1343h-768zM256 128h512v1087h-512v-1087z" />
    <glyph glyph-name="uE818" unicode="&#x651;&#x64b;" 
d="M398 1621l-302 -124v79l302 120v-75zM398 1806l-302 -124v79l302 119v-74zM159 1223q-37 0 -62 28q-28 37 -25 110q1 25 4 43t4 19l56 -12q-1 -7 -2 -16q-1 -8 -2 -17t-1 -20q-3 -50 12 -70q2 -2 5 -4t11 -2q20 0 33.5 20t21.5 42q5 14 8 27.5t5 24.5q3 12 4 24l59 -2
q0 -12 2 -24q2 -11 3.5 -24t6.5 -27q5 -20 15.5 -39.5t28.5 -19.5q13 0 19 5q4 5 9 18t5 44q0 16 -4.5 33.5t-10.5 34t-12.5 29.5t-10.5 20l50 29q1 -1 8.5 -14.5t16 -34.5t15.5 -46.5t7 -50.5q0 -70 -33 -103q-17 -17 -34.5 -20t-24.5 -3q-42 0 -71 37q-5 7 -10 15t-9 18
q-11 -22 -23 -36t-25 -22t-25.5 -11t-23.5 -3z" />
    <glyph glyph-name="uFC5E" unicode="&#x651;&#x64c;" arabic-form="isolated" 
d="M152 1292q-37 0 -62 28q-28 37 -25 110q1 25 4 43t4 19l56 -12q-1 -7 -2 -16q-1 -8 -2 -17t-1 -20q-3 -50 12 -70q2 -2 5 -4t11 -2q20 0 33.5 20t21.5 42q5 14 8 27.5t5 24.5q3 12 4 24l59 -2q0 -12 2 -24q2 -11 3.5 -24t6.5 -27q5 -20 15.5 -39.5t28.5 -19.5q13 0 19 5
q4 5 9 18t5 44q0 16 -4.5 33.5t-10.5 34t-12.5 29.5t-10.5 20l50 29q1 -1 8.5 -14.5t16 -34.5t15.5 -46.5t7 -50.5q0 -70 -33 -103q-17 -17 -34.5 -20t-24.5 -3q-42 0 -71 37q-5 7 -10 15t-9 18q-11 -22 -23 -36t-25 -22t-25.5 -11t-23.5 -3zM160 1594l-33 46q4 7 8.5 20.5
t7 28.5t2 30t-5.5 24q-2 5 -6 8t-14 4q-8 0 -16.5 -3t-16 -7.5t-13 -9t-7.5 -6.5l-44 43q2 2 10.5 9.5t21.5 15.5t30.5 14t37.5 5q50 -3 71 -44q13 -23 13 -50.5t-5 -53.5q35 11 75.5 27t69.5 36l-4 3q-9 4 -18.5 8.5t-20.5 9.5q-29 14 -44.5 33t-21.5 38.5t-4.5 37.5
t7.5 31q10 21 27.5 38t38.5 27t44 11.5t44 -8.5q42 -20 56 -69q10 -33 6 -69t-12 -61q5 -2 10 -3.5t10 -2.5l-18 -59q-6 2 -15 4.5t-19 5.5q-27 -27 -67 -47.5t-78.5 -34t-69 -21.5t-37.5 -9zM355 1907q-15 0 -33 -12t-27 -29l-1.5 -6t0.5 -14.5t9.5 -18.5t26.5 -19
q10 -5 20 -9.5t19 -9.5l17 -8q5 17 8.5 45.5t-4.5 51.5q-7 18 -23 27q-6 2 -12 2z" />
    <glyph glyph-name="uFC5F" unicode="&#x651;&#x64d;" arabic-form="isolated" 
d="M336 1500l-302 -123v78l302 120v-75zM336 1340l-302 -123v78l302 120v-75zM90 1613q-37 0 -62 28q-28 37 -25 110q1 25 4 43t4 19l56 -12q-1 -7 -2 -16q-1 -8 -2 -17t-1 -20q-3 -50 12 -70q2 -2 5 -4t11 -2q20 0 33.5 20t21.5 42q5 14 8 27.5t5 24.5q3 12 4 24l59 -2
q0 -12 2 -24q2 -11 3.5 -24t6.5 -27q5 -20 15.5 -39.5t28.5 -19.5q13 0 19 5q4 5 9 18t5 44q0 16 -4.5 33.5t-10.5 34t-12.5 29.5t-10.5 20l50 29q1 -1 8.5 -14.5t16 -34.5t15.5 -46.5t7 -50.5q0 -70 -33 -103q-17 -17 -34.5 -20t-24.5 -3q-42 0 -71 37q-5 7 -10 15t-9 18
q-11 -22 -23 -36t-25 -22t-25.5 -11t-23.5 -3z" />
    <glyph glyph-name="uFC60" unicode="&#x651;&#x64e;" arabic-form="isolated" 
d="M163 1257q-37 0 -62 28q-28 37 -25 110q1 25 4 43t4 19l56 -12q-1 -7 -2 -16q-1 -8 -2 -17t-1 -20q-3 -50 12 -70q2 -2 5 -4t11 -2q20 0 33.5 20t21.5 42q5 14 8 27.5t5 24.5q3 12 4 24l59 -2q0 -12 2 -24q2 -11 3.5 -24t6.5 -27q5 -20 15.5 -39.5t28.5 -19.5q13 0 19 5
q4 5 9 18t5 44q0 16 -4.5 33.5t-10.5 34t-12.5 29.5t-10.5 20l50 29q1 -1 8.5 -14.5t16 -34.5t15.5 -46.5t7 -50.5q0 -70 -33 -103q-17 -17 -34.5 -20t-24.5 -3q-42 0 -71 37q-5 7 -10 15t-9 18q-11 -22 -23 -36t-25 -22t-25.5 -11t-23.5 -3zM431 1697l-302 -124v79l302 119
v-74z" />
    <glyph glyph-name="uFC61" unicode="&#x651;&#x64f;" arabic-form="isolated" 
 />
    <glyph glyph-name="uFC62" unicode="&#x651;&#x650;" arabic-form="isolated" 
d="M451 1312l-302 -123v78l302 120v-75zM196 1431q-37 0 -62 28q-28 37 -25 110q1 25 4 43t4 19l56 -12q-1 -7 -2 -16q-1 -8 -2 -17t-1 -20q-3 -50 12 -70q2 -2 5 -4t11 -2q20 0 33.5 20t21.5 42q5 14 8 27.5t5 24.5q3 12 4 24l59 -2q0 -12 2 -24q2 -11 3.5 -24t6.5 -27
q5 -20 15.5 -39.5t28.5 -19.5q13 0 19 5q4 5 9 18t5 44q0 16 -4.5 33.5t-10.5 34t-12.5 29.5t-10.5 20l50 29q1 -1 8.5 -14.5t16 -34.5t15.5 -46.5t7 -50.5q0 -70 -33 -103q-17 -17 -34.5 -20t-24.5 -3q-42 0 -71 37q-5 7 -10 15t-9 18q-11 -22 -23 -36t-25 -22t-25.5 -11
t-23.5 -3z" />
    <glyph glyph-name="uFDF2" unicode="&#xfedf;&#xfee0;&#xfeea;" horiz-adv-x="1351" arabic-form="isolated" 
d="M719 2h-29v-2q-23 0 -48 2h-9v1q-6 0 -13 1q-37 5 -60 22q-56 27 -94 87q-44 -7 -83 -10t-74 -3q-184 0 -256 89q-20 24 -28.5 50.5t-9.5 51t3 45.5t10 35l1 4q29 60 73.5 106t92.5 79t93 54t75 32q-5 54 -8 88t-3 35l140 12q40 -464 73.5 -551.5t85.5 -89t84 0.5
t53.5 18.5t32.5 41t-28 638.5l142 15q44 -614 44 -620q0 -13 4 -33t22.5 -41t49 -22t53.5 1.5t40.5 10.5t25.5 19q13 16 16 36.5t3 41.5q0 7 -53 644l138 32q51 -663 49.5 -722.5t-48.5 -129t-188 -66.5q-35 -5 -73 6q-14 2 -27 7q-49 20 -78 46q-15 -12 -28 -22
q-20 -13 -41.5 -21t-43 -12t-42.5 -5.5t-39 -1.5zM379 501q-26 -11 -57 -28t-61.5 -39.5t-57.5 -51.5t-45 -65q-1 -5 -2 -17t8 -23q5 -6 21 -15.5t51 -15.5q35 -5 80 -5t101 7q-8 41 -17.5 101.5t-20.5 151.5zM773 904q-37 0 -62 28q-28 37 -25 110q1 25 4 43t4 19l56 -12
q-1 -7 -2 -16q-1 -8 -2 -17t-1 -20q-3 -50 12 -70q2 -2 5 -4t11 -2q20 0 33.5 20t21.5 42q5 14 8 27.5t5 24.5q3 12 4 24l59 -2q0 -12 2 -24q2 -11 3.5 -24t6.5 -27q5 -20 15.5 -39.5t28.5 -19.5q13 0 19 5q4 5 9 18t5 44q0 16 -4.5 33.5t-10.5 34t-12.5 29.5t-10.5 20
l50 29q1 -1 8.5 -14.5t16 -34.5t15.5 -46.5t7 -50.5q0 -70 -33 -103q-17 -17 -34.5 -20t-24.5 -3q-42 0 -71 37q-5 7 -10 15t-9 18q-11 -22 -23 -36t-25 -22t-25.5 -11t-23.5 -3zM876 1172l-51 16q14 51 13.5 104t-13.5 101l52 16q11 -43 13 -102t-14 -135z" />
    <glyph glyph-name="uFEF5" unicode="&#xfedf;&#xfe82;" horiz-adv-x="814" arabic-form="isolated" 
d="M781 366q6 -83 -22 -153.5t-90 -126.5q-47 -43 -110.5 -74t-139.5 -48q-80 -17 -159 -17q-54 0 -105 9l24 139q45 -8 99.5 -6.5t109.5 13.5q-16 85 -50 176t-76 178.5t-87 166t-82 138t-61.5 95t-25.5 36.5l116 82q1 -2 16.5 -24t40.5 -60.5t57 -91t67 -115.5
q170 -304 219 -531q14 9 27.5 18t24.5 20q73 66 66 166l-62 724l140 14q0 -1 3.5 -33t9 -86.5t12.5 -126.5t13.5 -152.5t13 -165.5t11.5 -164zM-123 1062q0 1 3 9.5t7.5 19.5t10 23.5t11.5 22.5q23 36 53 58t62 28q7 2 15.5 2h15.5q31 0 56.5 -8t47.5 -17q20 -8 38.5 -13.5
t40.5 -6.5q17 -1 33.5 7.5t30 20.5t23.5 23.5t15 16.5l81 -53q-1 -2 -15 -21t-38.5 -40t-58.5 -38t-74 -16q-29 1 -54 8t-46 15l-12 4q-23 9 -42 15t-41 2q-13 -2 -24.5 -13t-20.5 -25.5t-15 -29.5t-9 -23z" />
    <glyph glyph-name="uFEF6" unicode="&#xfee0;&#xfe82;" horiz-adv-x="876" arabic-form="final" 
d="M-153 1035q0 1 3 9.5t7.5 19.5t10 23.5t11.5 22.5q23 36 53 58t62 28q7 2 15.5 2h15.5q31 0 56.5 -8t47.5 -17q20 -8 38.5 -13.5t40.5 -6.5q17 -1 33.5 7.5t30 20.5t23.5 23.5t15 16.5l81 -53q-1 -2 -15 -21t-38.5 -40t-58.5 -38t-74 -16q-29 1 -54 8t-46 15l-12 4
q-23 9 -42 15t-41 2q-13 -2 -24.5 -13t-20.5 -25.5t-15 -29.5t-9 -23zM797 166q26 -14 47.5 -19t26.5 -6h34q27 -2 46 -22.5t19 -48.5q0 -29 -21 -49.5t-50 -20.5h-6h-29q-3 0 -14.5 1.5t-29.5 5.5t-40.5 12t-46.5 21q-29 15 -45 35t-34 44q-15 -17 -33 -33
q-95 -87 -250 -122q-80 -17 -159 -17q-54 0 -105 9l24 139q45 -8 99.5 -6.5t109.5 13.5q-16 85 -50 176t-76 178.5t-87 166t-82 138t-61 95t-25 36.5l115 82q1 -2 16.5 -24t40.5 -60.5t57 -91t67 -115.5q170 -304 219 -531q14 9 27.5 18t24.5 20q73 67 66 164
q-5 78 -12 161.5t-13.5 164t-13 152.5t-12 126.5t-8.5 87t-3 33.5l140 15q0 -1 4 -39t10 -100.5t13.5 -144t15 -170.5t14 -179t11.5 -170q3 -44 13.5 -74.5t45.5 -50.5z" />
    <glyph glyph-name="uFEF7" unicode="&#xfedf;&#xfe84;" horiz-adv-x="829" arabic-form="isolated" 
d="M58 931l1 -1q0 -1 1 -2q-2 2 -2 3zM206 1306q-8 2 -19 4q-9 2 -21 3.5t-26 1.5q-11 0 -22 -1.5t-22 -6.5v1q-23 -10 -37 -30.5t-14 -43.5q0 -11 6 -26l-1 1q11 -25 36 -42t56 -17q17 0 30 5q19 6 36.5 15.5t31.5 17.5q16 10 31 21l42 -56q-28 -20 -70 -44t-103 -57
l-162 -90l-34 62l128 71q-29 13 -52 35.5t-35 50.5q-5 12 -7.5 25t-2.5 28q0 45 26 83t69 55q33 13 70 13q16 0 31.5 -2.5t27.5 -4.5q14 -3 27 -6zM781 366q6 -83 -22 -153.5t-90 -126.5q-47 -43 -110.5 -74t-139.5 -48q-80 -17 -159 -17q-54 0 -105 9l24 139
q45 -8 99.5 -6.5t109.5 13.5q-16 85 -50 176t-76 178.5t-87 166t-82 138t-61.5 95t-25.5 36.5l116 82q1 -2 16.5 -24t40.5 -60.5t57 -91t67 -115.5q170 -304 219 -531q14 9 27.5 18t24.5 20q73 66 66 166l-62 724l140 14q0 -1 3.5 -33t9 -86.5t12.5 -126.5t13.5 -152.5
t13 -165.5t11.5 -164z" />
    <glyph glyph-name="uFEF8" unicode="&#xfee0;&#xfe84;" horiz-adv-x="875" arabic-form="final" 
d="M264 1378q-8 2 -19 4q-9 2 -21 3.5t-26 1.5q-11 0 -22 -1.5t-22 -6.5v1q-23 -10 -37 -30.5t-14 -43.5q0 -11 6 -26l-1 1q11 -25 36 -42t56 -17q17 0 30 5q19 6 36.5 15.5t31.5 17.5q16 10 31 21l42 -56q-28 -20 -70 -44t-103 -57l-162 -90l-34 62l128 71q-29 13 -52 35.5
t-35 50.5q-5 12 -7.5 25t-2.5 28q0 45 26 83t69 55q33 13 70 13q16 0 31.5 -2.5t27.5 -4.5q14 -3 27 -6zM797 166q26 -14 47.5 -19t26.5 -6h34q27 -2 46 -22.5t19 -48.5q0 -29 -21 -49.5t-50 -20.5h-6h-29q-3 0 -14.5 1.5t-29.5 5.5t-40.5 12t-46.5 21q-29 15 -45 35t-34 44
q-15 -17 -33 -33q-95 -87 -250 -122q-80 -17 -159 -17q-54 0 -105 9l24 139q45 -8 99.5 -6.5t109.5 13.5q-16 85 -50 176t-76 178.5t-87 166t-82 138t-61 95t-25 36.5l115 82q1 -2 16.5 -24t40.5 -60.5t57 -91t67 -115.5q170 -304 219 -531q14 9 27.5 18t24.5 20
q73 67 66 164q-5 78 -12 161.5t-13.5 164t-13 152.5t-12 126.5t-8.5 87t-3 33.5l140 15q0 -1 4 -39t10 -100.5t13.5 -144t15 -170.5t14 -179t11.5 -170q3 -44 13.5 -74.5t45.5 -50.5z" />
    <glyph glyph-name="uFEF9" unicode="&#xfedf;&#xfe88;" horiz-adv-x="846" arabic-form="isolated" 
d="M369 -230q-8 2 -19 4q-9 2 -21 3.5t-26 1.5q-11 0 -22 -1.5t-22 -6.5v1q-23 -10 -37 -30.5t-14 -43.5q0 -11 6 -26l-1 1q11 -25 36 -42t56 -17q17 0 30 5q19 6 36.5 15.5t31.5 17.5q16 10 31 21l42 -56q-28 -20 -70 -44t-103 -57l-162 -90l-34 62l128 71q-29 13 -52 35.5
t-35 50.5q-5 12 -7.5 25t-2.5 28q0 45 26 83t69 55q33 13 70 13q16 0 31.5 -2.5t27.5 -4.5q14 -3 27 -6zM781 366q6 -83 -22 -153.5t-90 -126.5q-47 -43 -110.5 -74t-139.5 -48q-80 -17 -159 -17q-54 0 -105 9l24 139q45 -8 99.5 -6.5t109.5 13.5q-16 85 -50 176t-76 178.5
t-87 166t-82 138t-61.5 95t-25.5 36.5l116 82q1 -2 16.5 -24t40.5 -60.5t57 -91t67 -115.5q170 -304 219 -531q14 9 27.5 18t24.5 20q73 66 66 166l-62 724l140 14q0 -1 3.5 -33t9 -86.5t12.5 -126.5t13.5 -152.5t13 -165.5t11.5 -164z" />
    <glyph glyph-name="uFEFA" unicode="&#xfee0;&#xfe88;" horiz-adv-x="874" arabic-form="final" 
d="M379 -225q-8 2 -19 4q-9 2 -21 3.5t-26 1.5q-11 0 -22 -1.5t-22 -6.5v1q-23 -10 -37 -30.5t-14 -43.5q0 -11 6 -26l-1 1q11 -25 36 -42t56 -17q17 0 30 5q19 6 36.5 15.5t31.5 17.5q16 10 31 21l42 -56q-28 -20 -70 -44t-103 -57l-162 -90l-34 62l128 71q-29 13 -52 35.5
t-35 50.5q-5 12 -7.5 25t-2.5 28q0 45 26 83t69 55q33 13 70 13q16 0 31.5 -2.5t27.5 -4.5q14 -3 27 -6zM797 166q26 -14 47.5 -19t26.5 -6h34q27 -2 46 -22.5t19 -48.5q0 -29 -21 -49.5t-50 -20.5h-6h-29q-3 0 -14.5 1.5t-29.5 5.5t-40.5 12t-46.5 21q-29 15 -45 35t-34 44
q-15 -17 -33 -33q-95 -87 -250 -122q-80 -17 -159 -17q-54 0 -105 9l24 139q45 -8 99.5 -6.5t109.5 13.5q-16 85 -50 176t-76 178.5t-87 166t-82 138t-61 95t-25 36.5l115 82q1 -2 16.5 -24t40.5 -60.5t57 -91t67 -115.5q170 -304 219 -531q14 9 27.5 18t24.5 20
q73 67 66 164q-5 78 -12 161.5t-13.5 164t-13 152.5t-12 126.5t-8.5 87t-3 33.5l140 15q0 -1 4 -39t10 -100.5t13.5 -144t15 -170.5t14 -179t11.5 -170q3 -44 13.5 -74.5t45.5 -50.5z" />
    <glyph glyph-name="uFEFB" unicode="&#xfedf;&#xfe8e;" horiz-adv-x="846" arabic-form="isolated" 
d="M781 366q6 -83 -22 -153.5t-90 -126.5q-47 -43 -110.5 -74t-139.5 -48q-80 -17 -159 -17q-54 0 -105 9l24 139q45 -8 99.5 -6.5t109.5 13.5q-16 85 -50 176t-76 178.5t-87 166t-82 138t-61.5 95t-25.5 36.5l116 82q1 -2 16.5 -24t40.5 -60.5t57 -91t67 -115.5
q170 -304 219 -531q14 9 27.5 18t24.5 20q73 66 66 166l-62 724l140 14q0 -1 3.5 -33t9 -86.5t12.5 -126.5t13.5 -152.5t13 -165.5t11.5 -164z" />
    <glyph glyph-name="uFEFC" unicode="&#xfee0;&#xfe8e;" horiz-adv-x="889" arabic-form="final" 
d="M797 166q26 -14 47.5 -19t26.5 -6h22h6q29 0 50 -21t21 -50t-21 -49.5t-50 -20.5h-6h-29q-3 0 -14.5 1.5t-29.5 5.5t-40.5 12t-46.5 21q-29 15 -45 35t-34 44q-15 -17 -33 -33q-95 -87 -250 -122q-80 -17 -159 -17q-54 0 -105 9l24 139q45 -8 99.5 -6.5t109.5 13.5
q-16 85 -50 176t-76 178.5t-87 166t-82 138t-61 95t-25 36.5l115 82q1 -2 16.5 -24t40.5 -60.5t57 -91t67 -115.5q170 -304 219 -531q14 9 27.5 18t24.5 20q73 67 66 164q-5 78 -12 161.5t-13.5 164t-13 152.5t-12 126.5t-8.5 87t-3 33.5l140 15q0 -1 4 -39t10 -100.5
t13.5 -144t15 -170.5t14 -179t11.5 -170q3 -44 13.5 -74.5t45.5 -50.5z" />
    <glyph glyph-name="u0622" unicode="&#x622;" horiz-adv-x="611" arabic-form="isolated" 
d="M426 -22l-141 8q11 162 13.5 306.5t-0.5 267t-9 220.5t-12.5 166.5t-11 106t-4.5 38.5l140 21q1 -4 10.5 -86t16 -190.5t9.5 -196.5t3 -191.5t-2.5 -222t-11.5 -247.5zM61 1146q0 1 3 9.5t7.5 19.5t10 23.5t11.5 22.5q23 36 53 58t62 28q7 2 15.5 2h15.5q31 0 56.5 -8
t47.5 -17q20 -8 38.5 -13.5t40.5 -6.5q17 -1 33.5 7.5t30 20.5t23.5 23.5t15 16.5l81 -53q-1 -2 -15 -21t-38.5 -40t-58.5 -38t-74 -16q-29 1 -54 8t-46 15l-12 4q-23 9 -42 15t-41 2q-13 -2 -24.5 -13t-20.5 -25.5t-15 -29.5t-9 -23z" />
    <glyph glyph-name="u0623" unicode="&#x623;" horiz-adv-x="479" arabic-form="isolated" 
d="M303 1429q-8 2 -19 4q-9 2 -21 3.5t-26 1.5q-11 0 -22 -1.5t-22 -6.5v1q-23 -10 -37 -30.5t-14 -43.5q0 -11 6 -26l-1 1q11 -25 36 -42t56 -17q17 0 30 5q19 6 36.5 15.5t31.5 17.5q16 10 31 21l42 -56q-28 -20 -70 -44t-103 -57l-162 -90l-34 62l128 71q-29 13 -52 35.5
t-35 50.5q-5 12 -7.5 25t-2.5 28q0 45 26 83t69 55q33 13 70 13q16 0 31.5 -2.5t27.5 -4.5q14 -3 27 -6zM344 -22l-141 8q11 162 13.5 306.5t-0.5 267t-9 220.5t-12.5 166.5t-11 106t-4.5 38.5l140 21q1 -4 10.5 -86t16 -190.5t9.5 -196.5t3 -191.5t-2.5 -222t-11.5 -247.5z
" />
    <glyph glyph-name="u0624" unicode="&#x624;" horiz-adv-x="698" arabic-form="isolated" 
d="M372 940q-8 2 -19 4q-9 2 -21 3.5t-26 1.5q-11 0 -22 -1.5t-22 -6.5v1q-23 -10 -37 -30.5t-14 -43.5q0 -11 6 -26l-1 1q11 -25 36 -42t56 -17q17 0 30 5q19 6 36.5 15.5t31.5 17.5q16 10 31 21l42 -56q-28 -20 -70 -44t-103 -57l-162 -90l-34 62l128 71q-29 13 -52 35.5
t-35 50.5q-5 12 -7.5 25t-2.5 28q0 45 26 83t69 55q33 13 70 13q16 0 31.5 -2.5t27.5 -4.5q14 -3 27 -6zM177 -492l-69 123q72 40 135 86t114 94t87.5 96t55.5 93q-29 -1 -63.5 -0.5t-73.5 3.5q-156 11 -229 102q-66 82 -43 208q19 120 83 200q35 45 78 68.5t89 23.5
q102 0 186 -92q36 -40 63.5 -92.5t45 -112.5t23.5 -125t0 -130q-7 -69 -45.5 -142.5t-107.5 -148.5q-132 -144 -329 -254zM341 464q-26 0 -56 -38q-20 -25 -33.5 -60t-21.5 -77q-12 -64 15 -97q11 -14 27 -23t34 -14.5t35.5 -8t30.5 -3.5q45 -2 82.5 -1.5t65.5 2.5
q-4 91 -32.5 162t-65.5 112q-14 15 -35 30.5t-46 15.5z" />
    <glyph glyph-name="u0625" unicode="&#x625;" horiz-adv-x="423" arabic-form="isolated" 
d="M291 -150q-8 2 -19 4q-9 2 -21 3.5t-26 1.5q-11 0 -22 -1.5t-22 -6.5v1q-23 -10 -37 -30.5t-14 -43.5q0 -11 6 -26l-1 1q11 -25 36 -42t56 -17q17 0 30 5q19 6 36.5 15.5t31.5 17.5q16 10 31 21l42 -56q-28 -20 -70 -44t-103 -57l-162 -90l-34 62l128 71q-29 13 -52 35.5
t-35 50.5q-5 12 -7.5 25t-2.5 28q0 45 26 83t69 55q33 13 70 13q16 0 31.5 -2.5t27.5 -4.5q14 -3 27 -6zM254 -22l-141 8q11 162 13.5 306.5t-0.5 267t-9 220.5t-12.5 166.5t-11 106t-4.5 38.5l140 21q1 -4 10.5 -86t16 -190.5t9.5 -196.5t3 -191.5t-2.5 -222t-11.5 -247.5z
" />
    <glyph glyph-name="u0626" unicode="&#x626;" horiz-adv-x="1255" arabic-form="isolated" 
d="M958 618q49 10 94 7t79.5 -10.5t55.5 -16t23 -9.5l-62 -131l-13.5 5t-35.5 10t-51 7t-60 -5q-65 -13 -119 -54t-89 -103q-26 -44 -34.5 -87.5t1.5 -72.5q10 -28 46 -40t97 -23q45 -8 88.5 -18.5t79.5 -36.5q16 -12 32.5 -29.5t27.5 -42.5t15 -59t-3 -77
q-13 -70 -63 -128.5t-133 -100.5q-78 -40 -178 -60.5t-217 -20.5q-135 0 -239 38.5t-170 113.5q-59 67 -83 155.5t-11 193.5q6 46 16 96t22 97t24.5 90t22.5 75.5t17 52.5t8 23l137 -48q0 -1 -6.5 -19.5t-16 -49t-21.5 -71t-23 -85t-20.5 -90.5t-14.5 -88q-3 -26 -3.5 -55.5
t5.5 -60.5t19 -61.5t37 -57.5q45 -51 121 -77t179 -26q102 0 182 16.5t137 43t89.5 60.5t38.5 70q3 18 3 29.5t-2.5 18.5t-5.5 10t-6 5q-17 11 -47.5 18t-63.5 13q-35 6 -70 14t-67 22q-89 39 -118 123q-20 60 -8.5 133.5t52.5 145.5q51 90 130.5 149t174.5 79zM522 820
q-8 2 -19 4q-9 2 -21 3.5t-26 1.5q-11 0 -22 -1.5t-22 -6.5v1q-23 -10 -37 -30.5t-14 -43.5q0 -11 6 -26l-1 1q11 -25 36 -42t56 -17q17 0 30 5q19 6 36.5 15.5t31.5 17.5q16 10 31 21l42 -56q-28 -20 -70 -44t-103 -57l-162 -90l-34 62l128 71q-29 13 -52 35.5t-35 50.5
q-5 12 -7.5 25t-2.5 28q0 45 26 83t69 55q33 13 70 13q16 0 31.5 -2.5t27.5 -4.5q14 -3 27 -6z" />
    <glyph glyph-name="u0627" unicode="&#x627;" horiz-adv-x="336" arabic-form="isolated" 
d="M262 -22l-141 8q11 162 13.5 306.5t-0.5 267t-9 220.5t-12.5 166.5t-11 106t-4.5 38.5l140 21q1 -4 10.5 -86t16 -190.5t9.5 -196.5t3 -191.5t-2.5 -222t-11.5 -247.5z" />
    <glyph glyph-name="u0628" unicode="&#x628;" horiz-adv-x="1431" arabic-form="isolated" 
d="M724 -18q-257 2 -411 59q-147 57 -200 164q-29 57 -29.5 125t27.5 142q20 51 40.5 83.5t23.5 37.5l113 -84q-8 -12 -16 -26q-7 -12 -15 -28t-15 -36q-33 -91 -3 -150q35 -70 160 -107.5t325 -38.5q114 0 203 13t154 38q48 20 80.5 45t49.5 57q16 30 19 62.5t-2 64.5
t-15.5 60.5t-20.5 50.5t-18.5 35t-8.5 14l118 78q2 -2 13.5 -21.5t26 -51t28 -73.5t19 -89t-1 -97.5t-32.5 -98.5q-59 -110 -203 -167q-157 -61 -409 -61zM884 -290l-116 -116l-117 117l116 116z" />
    <glyph glyph-name="u0629" unicode="&#x629;" horiz-adv-x="683" arabic-form="isolated" 
d="M370 1064q-8 2 -19 4q-9 2 -21 3.5t-26 1.5q-11 0 -22 -1.5t-22 -6.5v1q-23 -10 -37 -30.5t-14 -43.5q0 -11 6 -26l-1 1q11 -25 36 -42t56 -17q17 0 30 5q19 6 36.5 15.5t31.5 17.5q16 10 31 21l42 -56q-28 -20 -70 -44t-103 -57l-162 -90l-34 62l128 71q-29 13 -52 35.5
t-35 50.5q-5 12 -7.5 25t-2.5 28q0 45 26 83t69 55q33 13 70 13q16 0 31.5 -2.5t27.5 -4.5q14 -3 27 -6zM347 -7q-3 0 -17 0.5t-35 4t-46.5 10.5t-52.5 19q-68 32 -103.5 86.5t-35.5 127.5q0 128 117 269q23 28 45 50t38 37q-21 20 -34 30.5t-13 11.5l90 109
q1 -1 15.5 -13.5t37.5 -33.5t52 -50.5t60 -63.5q174 -197 174 -346q0 -73 -32.5 -127.5t-95.5 -85.5q-23 -11 -46.5 -18t-45.5 -11t-40.5 -5t-31.5 -1zM356 496q-21 -18 -48.5 -47t-51.5 -63.5t-41 -71.5t-17 -73q0 -21 10 -44.5t48 -41.5q27 -13 54 -16.5t37 -3.5
q7 0 18.5 0.5t25.5 2.5t28.5 5.5t28.5 10.5q26 14 38 34.5t12 52.5q0 46 -35.5 111t-103.5 141z" />
    <glyph glyph-name="u062A" unicode="&#x62a;" horiz-adv-x="1428" arabic-form="isolated" 
d="M723 -18q-257 2 -411 59q-147 57 -200 164q-29 57 -29.5 125t27.5 142q20 51 40.5 83.5t23.5 37.5l113 -84q-8 -12 -16 -26q-7 -12 -15 -28t-15 -36q-33 -91 -3 -150q35 -70 160 -107.5t325 -38.5q114 0 203 13t154 38q48 20 80.5 45t49.5 57q16 30 19 62.5t-2 64.5
t-15.5 60.5t-20.5 50.5t-18 35t-9 14l118 78q2 -2 13.5 -21.5t26 -51t28 -73.5t19 -89t-1 -97.5t-32.5 -98.5q-59 -110 -203 -167q-157 -61 -409 -61zM747 744l-116 -116l-117 117l116 116zM990 743l-116 -116l-117 117l116 116z" />
    <glyph glyph-name="u062B" unicode="&#x62b;" horiz-adv-x="1426" arabic-form="isolated" 
d="M751 -18q-257 2 -411 59q-147 57 -200 164q-29 57 -29.5 125t27.5 142q20 51 40.5 83.5t23.5 37.5l113 -84q-8 -12 -16 -26q-7 -12 -15 -28t-15 -36q-33 -91 -3 -150q35 -70 160 -107.5t325 -38.5q114 0 203 13t154 38q48 20 80.5 45t49.5 57q16 30 19 62.5t-2 64.5
t-15.5 60.5t-20.5 50.5t-18.5 35t-8.5 14l118 78q2 -2 13.5 -21.5t26 -51t28 -73.5t19 -89t-1 -97.5t-32.5 -98.5q-59 -110 -203 -167q-157 -61 -409 -61zM788 643l116 116l117 -117l-116 -116zM535 644l116 116l117 -117l-116 -116zM655 840l116 116l117 -117l-116 -116z
" />
    <glyph glyph-name="u062C" unicode="&#x62c;" horiz-adv-x="1175" arabic-form="isolated" 
d="M674 -548q-77 0 -137.5 9t-93.5 20q-162 53 -249 155q-55 64 -79 141.5t-16 169.5q7 72 34 137t77 123q42 49 95.5 89.5t117.5 69.5q87 41 182 64t183 34q-20 10 -39.5 19t-38.5 19q-75 37 -136.5 64.5t-103.5 33.5q-99 14 -179 -71q-16 -17 -27.5 -33.5t-19.5 -30.5
q-10 -16 -16 -30l-130 54q1 3 7 16t17 31.5t27.5 41.5t38.5 47q63 68 139.5 97t161.5 18q60 -8 128.5 -38.5t155.5 -72.5q78 -39 166 -80t191 -75l-26 -137q-1 0 -30 1t-77.5 -0.5t-111 -6t-131.5 -15t-138.5 -29.5t-132.5 -48q-26 -12 -64.5 -36t-76.5 -61t-67 -88.5
t-35 -118.5q-21 -232 247 -320q13 -5 38.5 -9.5t58.5 -7.5t73 -4t83 2q35 3 76.5 9.5t84 20t83.5 34.5t77 52l93 -107q-51 -45 -111 -74.5t-123 -47t-126 -24.5t-120 -7zM782 -76l-116 -116l-117 117l116 116z" />
    <glyph glyph-name="u062D" unicode="&#x62d;" horiz-adv-x="1170" arabic-form="isolated" 
d="M674 -534q-77 0 -137.5 9t-93.5 20q-162 53 -249 155q-55 64 -79 141.5t-16 169.5q7 72 34 137t77 123q42 49 95.5 89.5t117.5 69.5q87 41 182 64t183 34q-20 10 -39.5 19t-38.5 19q-75 37 -136.5 64.5t-103.5 33.5q-99 14 -179 -71q-16 -17 -27.5 -33.5t-19.5 -30.5
q-10 -16 -16 -30l-130 54q1 3 7 16t17 31.5t27.5 41.5t38.5 47q63 68 139.5 97t161.5 18q60 -8 128.5 -38.5t155.5 -72.5q78 -39 166 -80t191 -75l-26 -137q-1 0 -30 1t-77.5 -0.5t-111 -6t-131.5 -15t-138.5 -29.5t-132.5 -48q-26 -12 -64.5 -36t-76.5 -61t-67 -88.5
t-35 -118.5q-21 -232 247 -320q13 -5 38.5 -9.5t58.5 -7.5t73 -4t83 2q35 3 76.5 9.5t84 20t83.5 34.5t77 52l93 -107q-51 -45 -111 -74.5t-123 -47t-126 -24.5t-120 -7z" />
    <glyph glyph-name="u062E" unicode="&#x62e;" horiz-adv-x="1170" arabic-form="isolated" 
d="M674 -548q-77 0 -137.5 9t-93.5 20q-162 53 -249 155q-55 64 -79 141.5t-16 169.5q7 72 34 137t77 123q42 49 95.5 89.5t117.5 69.5q87 41 182 64t183 34q-20 10 -39.5 19t-38.5 19q-75 37 -136.5 64.5t-103.5 33.5q-99 14 -179 -71q-16 -17 -27.5 -33.5t-19.5 -30.5
q-10 -16 -16 -30l-130 54q1 3 7 16t17 31.5t27.5 41.5t38.5 47q63 68 139.5 97t161.5 18q60 -8 128.5 -38.5t155.5 -72.5q78 -39 166 -80t191 -75l-26 -137q-1 0 -30 1t-77.5 -0.5t-111 -6t-131.5 -15t-138.5 -29.5t-132.5 -48q-26 -12 -64.5 -36t-76.5 -61t-67 -88.5
t-35 -118.5q-21 -232 247 -320q13 -5 38.5 -9.5t58.5 -7.5t73 -4t83 2q35 3 76.5 9.5t84 20t83.5 34.5t77 52l93 -107q-51 -45 -111 -74.5t-123 -47t-126 -24.5t-120 -7zM583 983l-116 -116l-117 117l116 116z" />
    <glyph glyph-name="u062F" unicode="&#x62f;" horiz-adv-x="768" arabic-form="isolated" 
d="M373 -14q-18 0 -36.5 1t-38.5 3q-45 4 -85 12t-70 15.5t-48.5 13.5t-19.5 6l47 134l16 -5t42.5 -12t61 -13.5t73.5 -10.5q31 -3 67 -3t70.5 6.5t65 21t51.5 39.5q19 23 5 83q-12 52 -45 111t-77.5 113t-95.5 97.5t-99 64.5l58 130q63 -29 127 -83t118.5 -120t95 -139.5
t56.5 -141.5q9 -40 9 -72t-6 -57t-16.5 -44t-21.5 -32q-65 -80 -183 -105q-27 -7 -57.5 -10t-63.5 -3z" />
    <glyph glyph-name="u0630" unicode="&#x630;" horiz-adv-x="793" arabic-form="isolated" 
d="M494 1052l-116 -116l-117 117l116 116zM373 -14q-18 0 -36.5 1t-38.5 3q-45 4 -85 12t-70 15.5t-48.5 13.5t-19.5 6l47 134l16 -5t42.5 -12t61 -13.5t73.5 -10.5q31 -3 67 -3t70.5 6.5t65 21t51.5 39.5q19 23 5 83q-12 52 -45 111t-77.5 113t-95.5 97.5t-99 64.5l58 130
q63 -29 127 -83t118.5 -120t95 -139.5t56.5 -141.5q9 -40 9 -72t-6 -57t-16.5 -44t-21.5 -32q-65 -80 -183 -105q-27 -7 -57.5 -10t-63.5 -3z" />
    <glyph glyph-name="u0631" unicode="&#x631;" horiz-adv-x="507" arabic-form="isolated" 
d="M393 450q20 -67 38 -132q7 -28 15 -58t14.5 -60t11.5 -58t8 -52q1 -8 1.5 -18t0.5 -22q0 -93 -40 -178t-106 -158.5t-151 -134t-175 -105.5l-62 126q75 37 145.5 86t126 106.5t89 123t33.5 134.5q0 4 -0.5 12t-1.5 16v-1q-3 22 -7.5 48t-11 53.5t-13.5 55t-14 53.5
q-17 60 -37 120z" />
    <glyph glyph-name="u0632" unicode="&#x632;" horiz-adv-x="523" arabic-form="isolated" 
d="M416 773l-116 -116l-117 117l116 116zM393 450q20 -67 38 -132q7 -28 15 -58t14.5 -60t11.5 -58t8 -52q1 -8 1.5 -18t0.5 -22q0 -93 -40 -178t-106 -158.5t-151 -134t-175 -105.5l-62 126q75 37 145.5 86t126 106.5t89 123t33.5 134.5q0 4 -0.5 12t-1.5 16v-1
q-3 22 -7.5 48t-11 53.5t-13.5 55t-14 53.5q-17 60 -37 120z" />
    <glyph glyph-name="u0633" unicode="&#x633;" horiz-adv-x="2013" arabic-form="isolated" 
d="M1771 661q6 -11 24 -47t37.5 -86.5t34.5 -110.5t15 -120q-1 -61 -14.5 -114.5t-43 -93.5t-75 -63t-110.5 -23q-20 0 -43 6t-45.5 18t-43.5 29.5t-36 40.5q-43 -51 -96.5 -71.5t-113.5 -23.5q-34 -2 -60.5 4.5t-44.5 15.5q-22 10 -38 24q2 -62 -7 -121.5t-31 -113.5
t-59 -100.5t-91 -82.5q-130 -88 -336 -97q-7 0 -14 -0.5t-14 -0.5q-189 0 -310 107q-54 48 -89.5 115.5t-46.5 146.5q-7 44 -6.5 87.5t5.5 84t13.5 76.5t17.5 65q22 73 47.5 125t43.5 77l114 -84q-14 -19 -34 -62.5t-36.5 -100.5t-25 -122t0.5 -126q4 -28 18 -70t47.5 -81.5
t91 -67.5t147.5 -28h24q304 14 369 213q19 58 20.5 118t-7.5 116t-25.5 107t-34.5 93q-17 38 -29.5 59t-12.5 22l119 77q5 -12 12 -27q6 -14 14 -32.5t19 -43.5q19 -45 40 -87t47.5 -74t59 -51t76.5 -17q55 1 81.5 31.5t35.5 77t7.5 102.5t-0.5 110l145 14q0 -11 1 -22
q1 -9 1 -19.5t1 -19.5q1 -18 2.5 -45.5t6 -58.5t12 -62.5t20.5 -56.5t31.5 -41t44.5 -16q24 0 43 14t32 37.5t18.5 53.5t4.5 63q-2 46 -13 88t-25.5 79t-30 67.5t-27.5 53.5z" />
    <glyph glyph-name="u0634" unicode="&#x634;" horiz-adv-x="2008" arabic-form="isolated" 
d="M1447 793l116 116l117 -117l-116 -116zM1194 794l116 116l117 -117l-116 -116zM1314 990l116 116l117 -117l-116 -116zM1784 661q6 -11 24 -47t37.5 -86.5t34.5 -110.5t15 -120q-1 -61 -14.5 -114.5t-43 -93.5t-75 -63t-110.5 -23q-20 0 -43 6t-45.5 18t-43.5 29.5
t-36 40.5q-43 -51 -96.5 -71.5t-113.5 -23.5q-34 -2 -60.5 4.5t-44.5 15.5q-22 10 -38 24q2 -62 -7 -121.5t-31 -113.5t-59 -100.5t-91 -82.5q-130 -88 -336 -97q-7 0 -14 -0.5t-14 -0.5q-189 0 -310 107q-54 48 -89.5 115.5t-46.5 146.5q-7 44 -6.5 87.5t5.5 84t13.5 76.5
t17.5 65q22 73 47.5 125t43.5 77l114 -84q-14 -19 -34 -62.5t-36.5 -100.5t-25 -122t0.5 -126q4 -28 18 -70t47.5 -81.5t91 -67.5t147.5 -28h24q304 14 369 213q19 58 20.5 118t-7.5 116t-25.5 107t-34.5 93q-17 38 -29.5 59t-12.5 22l119 77q5 -12 12 -27q6 -14 14 -32.5
t19 -43.5q19 -45 40 -87t47.5 -74t59 -51t76.5 -17q55 1 81.5 31.5t35.5 77t7.5 102.5t-0.5 110l145 14q0 -11 1 -22q1 -9 1 -19.5t1 -19.5q1 -18 2.5 -45.5t6 -58.5t12 -62.5t20.5 -56.5t31.5 -41t44.5 -16q24 0 43 14t32 37.5t18.5 53.5t4.5 63q-2 46 -13 88t-25.5 79
t-30 67.5t-27.5 53.5z" />
    <glyph glyph-name="u0635" unicode="&#x635;" horiz-adv-x="2023" arabic-form="isolated" 
d="M531 -455q-17 0 -35 1t-37 3q-139 10 -234 68q-45 26 -77.5 62.5t-55.5 81.5q-42 88 -41 200q0 45 7 92t20 98q11 43 24.5 81.5t27 69.5t25 53t17.5 31l118 -76q-6 -8 -19 -35t-27.5 -67.5t-28 -90t-19.5 -101t-2 -102t25 -91.5q56 -117 252 -134q200 -17 307 75
q31 25 51.5 56t33 63t18.5 63.5t8 58.5q4 61 -6 126t-25 122.5t-30.5 101.5t-22.5 64q-2 3 -3 6.5t-3 6.5l131 55l6 -16q23 -54 51.5 -102t53.5 -87q9 -14 22.5 -28t30.5 -28q13 24 30 52t39 59t48.5 62.5t57.5 61.5q63 60 138 99.5t153 53.5q91 16 169 -6t135 -82
q42 -43 62 -93.5t16 -104.5q-6 -81 -45 -146t-108 -110q-39 -25 -81.5 -41.5t-85 -26t-82.5 -14t-74 -5.5q-81 -3 -161 8.5t-143 34.5q-37 14 -70 31t-62 38q3 -52 0 -103q-7 -99 -45 -182q-40 -93 -115 -156q-131 -111 -339 -111zM1218 158q46 -16 110 -25t132.5 -7
t134.5 17t116 48q82 51 91 146q1 31 -13 55t-26 36q-20 20 -43.5 31.5t-47 16.5t-46 4t-41.5 -5q-57 -10 -113.5 -40t-104.5 -76q-54 -51 -91 -106t-58 -95z" />
    <glyph glyph-name="u0636" unicode="&#x636;" horiz-adv-x="2028" arabic-form="isolated" 
d="M1816 887l-116 -116l-117 117l116 116zM586 -460q-17 0 -35 1t-37 3q-139 10 -234 68q-45 26 -77.5 62.5t-55.5 81.5q-42 88 -41 200q0 45 7 92t20 98q11 43 24.5 81.5t27 69.5t25 53t17.5 31l118 -76q-6 -8 -19 -35t-27.5 -67.5t-28 -90t-19.5 -101t-2 -102t25 -91.5
q56 -117 252 -134q200 -17 307 75q31 25 51.5 56t33 63t18.5 63.5t8 58.5q4 61 -6 126t-25 122.5t-30.5 101.5t-22.5 64q-2 3 -3 6.5t-3 6.5l131 55l6 -16q23 -54 51.5 -102t53.5 -87q9 -14 22.5 -28t30.5 -28q13 24 30 52t39 59t48.5 62.5t57.5 61.5q63 60 138 99.5
t153 53.5q91 16 169 -6t135 -82q42 -43 62 -93.5t16 -104.5q-6 -81 -45 -146t-108 -110q-39 -25 -81.5 -41.5t-85 -26t-82.5 -14t-74 -5.5q-81 -3 -161 8.5t-143 34.5q-37 14 -70 31t-62 38q3 -52 0 -103q-7 -99 -45 -182q-40 -93 -115 -156q-131 -111 -339 -111zM1273 153
q46 -16 110 -25t132.5 -7t134.5 17t116 48q82 51 91 146q1 31 -13 55t-26 36q-20 20 -43.5 31.5t-47 16.5t-46 4t-41.5 -5q-57 -10 -113.5 -40t-104.5 -76q-54 -51 -91 -106t-58 -95z" />
    <glyph glyph-name="u0637" unicode="&#x637;" horiz-adv-x="1245" arabic-form="isolated" 
d="M616 -14q-48 0 -90 3h-4q-112 5 -223 29.5t-230 70.5l52 132q48 -19 93.5 -33.5t90.5 -25.5q15 22 37.5 52.5t51.5 67.5l5 7q9 61 13.5 109.5t5 96.5t-2.5 101t-8 124q-6 77 -12.5 143t-12 114.5t-9.5 76l-4 27.5l140 26l2 -18.5t5.5 -48.5t8 -68.5t8.5 -78.5t8 -79
t6 -69q3 -40 5 -64t3 -40.5t1.5 -29.5t1 -31t1 -45.5t1.5 -72.5q172 163 329 187q141 22 257 -71q72 -58 76 -154q3 -39 -5 -77t-23.5 -71.5t-35 -62t-38.5 -48.5l-1 -2l-1 -1q-64 -57 -130 -92t-130.5 -53.5t-126 -24.5t-115.5 -6zM462 135q17 -2 33 -3t34 -2h2
q52 -2 112.5 -2t123.5 12t127.5 40.5t125.5 83.5q26 28 45 70t17 82q-2 23 -9.5 35t-15.5 18q-66 53 -146 40q-72 -11 -158.5 -71.5t-182.5 -166.5q-17 -20 -33 -38.5t-31 -36.5z" />
    <glyph glyph-name="u0638" unicode="&#x638;" horiz-adv-x="1225" arabic-form="isolated" 
d="M1004 904l-116 -116l-117 117l116 116zM582 -14q-48 0 -90 3h-4q-112 5 -223 29.5t-230 70.5l52 132q48 -19 93.5 -33.5t90.5 -25.5q15 22 37.5 52.5t51.5 67.5l5 7q9 61 13.5 109.5t5 96.5t-2.5 101t-8 124q-6 77 -12.5 143t-12 114.5t-9.5 76l-4 27.5l140 26l2 -18.5
t5.5 -48.5t8 -68.5t8.5 -78.5t8 -79t6 -69q3 -40 5 -64t3 -40.5t1.5 -29.5t1 -31t1 -45.5t1.5 -72.5q172 163 329 187q141 22 257 -71q72 -58 76 -154q3 -39 -5 -77t-23.5 -71.5t-35 -62t-38.5 -48.5l-1 -2l-1 -1q-64 -57 -130 -92t-130.5 -53.5t-126 -24.5t-115.5 -6z
M428 135q17 -2 33 -3t34 -2h2q52 -2 112.5 -2t123.5 12t127.5 40.5t125.5 83.5q26 28 45 70t17 82q-2 23 -9.5 35t-15.5 18q-66 53 -146 40q-72 -11 -158.5 -71.5t-182.5 -166.5q-17 -20 -33 -38.5t-31 -36.5z" />
    <glyph glyph-name="u0639" unicode="&#x639;" horiz-adv-x="1004" arabic-form="isolated" 
d="M564 -663q-66 0 -118 6.5t-81 15.5q-163 48 -254 148q-115 123 -104 308q7 143 103 264q81 101 208 165q15 8 30.5 15t31.5 14l-4 3q-97 67 -109 189q-7 64 11 122.5t60 106.5q45 51 105 80.5t127 32.5q112 4 225 -69q40 -26 63.5 -48t26.5 -24l-103 -98q-29 28 -62 50
q-29 19 -66 34.5t-77 13.5q-38 -2 -73 -18.5t-59 -45.5q-15 -18 -28.5 -48t-9.5 -75q6 -57 49 -87q35 -24 96 -36t142 -1q32 5 62 9t53 8q26 4 49 9l30 -137q-1 0 -15 -2.5t-38.5 -6.5t-58 -10t-72.5 -12q-62 -10 -108.5 -20.5t-83 -21.5t-67.5 -24t-63 -29q-25 -12 -63 -37
t-75 -63.5t-64.5 -91t-31.5 -119.5q-14 -234 256 -312q14 -4 39 -8.5t58.5 -6.5t73.5 -2t83 5q35 4 76.5 12t83.5 22.5t82.5 36.5t74.5 54l96 -103q-53 -50 -116.5 -82.5t-130.5 -51.5t-134 -26.5t-126 -7.5z" />
    <glyph glyph-name="u063A" unicode="&#x63a;" horiz-adv-x="1030" arabic-form="isolated" 
d="M675 1008l-116 -116l-117 117l116 116zM564 -663q-66 0 -118 6.5t-81 15.5q-163 48 -254 148q-115 123 -104 308q7 143 103 264q81 101 208 165q15 8 30.5 15t31.5 14l-4 3q-97 67 -109 189q-7 64 11 122.5t60 106.5q45 51 105 80.5t127 32.5q112 4 225 -69
q40 -26 63.5 -48t26.5 -24l-103 -98q-29 28 -62 50q-29 19 -66 34.5t-77 13.5q-38 -2 -73 -18.5t-59 -45.5q-15 -18 -28.5 -48t-9.5 -75q6 -57 49 -87q35 -24 96 -36t142 -1q32 5 62 9t53 8q26 4 49 9l30 -137q-1 0 -15 -2.5t-38.5 -6.5t-58 -10t-72.5 -12
q-62 -10 -108.5 -20.5t-83 -21.5t-67.5 -24t-63 -29q-25 -12 -63 -37t-75 -63.5t-64.5 -91t-31.5 -119.5q-14 -234 256 -312q14 -4 39 -8.5t58.5 -6.5t73.5 -2t83 5q35 4 76.5 12t83.5 22.5t82.5 36.5t74.5 54l96 -103q-53 -50 -116.5 -82.5t-130.5 -51.5t-134 -26.5
t-126 -7.5z" />
    <glyph glyph-name="u0641" unicode="&#x641;" horiz-adv-x="1386" arabic-form="isolated" 
d="M1175 1065l-116 -116l-117 117l116 116zM1218 707q33 -36 60 -88.5t43.5 -115t18.5 -131.5t-14 -137q-2 -10 -8 -26.5t-19 -37t-35 -43t-57 -44.5q-39 -25 -96.5 -44t-127 -31.5t-148 -18.5t-159.5 -6q-433 0 -560 217q-29 48 -39 97.5t-8.5 96.5t11 89t21 74t21 51.5
t10.5 22.5l124 -68q0 -1 -6.5 -14t-14.5 -35.5t-15.5 -52t-9.5 -61.5t4 -65.5t24 -63.5q43 -72 143 -110t274 -42q103 -3 177.5 3t128.5 16.5t90 24t61 27.5q23 13 38 24.5t23 21.5h-36h-34.5t-36.5 2q-143 9 -210 94q-22 25 -37 73t-3 119q8 46 26.5 93.5t47.5 86t68 63
t89 24.5q95 0 171 -85zM1075 380q75 -5 124 0q-7 36 -16.5 79.5t-26 83t-43 69.5t-66.5 39q-18 4 -41 -21t-39 -62.5t-19 -78.5t19 -69q13 -17 41.5 -27.5t66.5 -12.5zM676 -16q13 -1 10 -1h-9.5t-9.5 0.5t9 0.5z" />
    <glyph glyph-name="u0642" unicode="&#x642;" horiz-adv-x="1130" arabic-form="isolated" 
d="M782 872l-116 -116l-117 117l116 116zM1025 871l-116 -116l-117 117l116 116zM861 -1q-38 0 -78 3q-78 5 -136.5 30.5t-93.5 71.5q-65 85 -43 208q10 60 31 110t52 90q35 45 78 68.5t89 23.5q102 0 186 -92q36 -40 63 -92.5t44.5 -111.5t23.5 -123.5t0 -128.5h1
q0 -2 -2 -24t-9 -57.5t-21 -79.5t-38 -90q-29 -57 -67.5 -101.5t-86.5 -76.5q-60 -42 -130 -62t-153 -20h-1q-141 0 -247 54q-56 28 -99.5 67.5t-72.5 91.5q-37 60 -53 132.5t-10 153.5q6 84 34 170.5t76 177.5l125 -67q-78 -147 -92 -275.5t40 -219.5q42 -70 119 -107
t180 -37h1q73 -5 133.5 19t106 68.5t75.5 103.5t43 123q-16 0 -32.5 -0.5t-35.5 -0.5zM760 462q-26 0 -56 -37q-20 -25 -33.5 -60t-21.5 -77q-10 -64 15 -97q11 -14 27.5 -23t34.5 -14t35.5 -7.5t30.5 -3.5q45 -3 82.5 -2.5t64.5 2.5q-4 91 -32.5 162t-64.5 112
q-15 16 -36 30.5t-46 14.5z" />
    <glyph glyph-name="u0643" unicode="&#x643;" horiz-adv-x="1581" arabic-form="isolated" 
d="M1569 1068l-567 -238q22 -17 46.5 -37.5t50.5 -44.5q216 -197 245 -371q23 -127 -56 -229q-8 -11 -37.5 -39t-91.5 -57q-54 -25 -110.5 -39.5t-114 -21.5t-116.5 -8t-118 1q-258 2 -411 58q-147 57 -200 164q-29 57 -29.5 124.5t27.5 142.5q20 51 40.5 83.5t23.5 37.5
l113 -84l-16 -26q-7 -12 -15 -28t-15 -36q-33 -92 -3 -150q35 -70 160.5 -107t326.5 -38q75 -3 135 0.5t107 11t81.5 17.5t58.5 20q45 18 63.5 33t22.5 19l2 2l3 5q42 54 30 120q-23 126 -199 289q-35 32 -68.5 59t-59.5 46t-41.5 30l-15.5 11l11 124l682 286z" />
    <glyph glyph-name="u0644" unicode="&#x644;" horiz-adv-x="1074" arabic-form="isolated" 
d="M337 243q-21 -28 -38 -71q-14 -37 -25.5 -93.5t-11.5 -136.5q0 -71 27 -122t67.5 -83.5t86 -48t83.5 -15.5q53 0 114 15.5t113 52.5t86.5 98t34.5 152q0 56 -1.5 133t-4.5 165t-6.5 181t-6.5 182q-9 208 -19 435l140 6q10 -229 19 -438q3 -89 6.5 -183t6.5 -182
t4.5 -165.5t1.5 -133.5q0 -90 -23 -159t-61 -120t-88 -85t-104 -55t-109 -30t-103 -9q-64 0 -135 23.5t-131 73.5t-99 127t-39 185q0 99 17 172t37 122q24 57 55 97z" />
    <glyph glyph-name="u0645" unicode="&#x645;" horiz-adv-x="884" arabic-form="isolated" 
d="M149 -521l-27 662q0 4 0.5 20t5.5 36t17 42t35 39q19 15 53 24t85 -5q8 24 19.5 51.5t26.5 56.5q22 42 44.5 73.5t45.5 54.5q72 72 157 69q58 -2 105 -25.5t81 -68.5q54 -73 61 -179q3 -48 -3.5 -94.5t-23.5 -88.5q-21 -52 -53.5 -83.5t-74.5 -38.5q-20 -3 -44 0.5
t-55.5 13t-71.5 25t-91 36.5q-40 17 -80 33t-75 27q-15 5 -21 5q-1 -5 -1.5 -9t-0.5 -8l26 -668h-140zM450 248l45 -18q33 -14 64 -26t58 -22q28 -10 42.5 -13.5t19.5 -4.5q5 4 13.5 18.5t16.5 44.5q8 32 9 66.5t-7 66.5q-9 37 -23.5 57t-30 30t-29.5 12t-22 2
q-25 1 -56 -31t-60 -90q-13 -24 -22.5 -48t-17.5 -44z" />
    <glyph glyph-name="u0646" unicode="&#x646;" horiz-adv-x="1115" arabic-form="isolated" 
d="M516 -491q-188 0 -309 107q-57 49 -91.5 116t-45.5 146q-7 44 -6.5 87.5t5.5 84t13.5 76.5t17.5 65q22 73 48 125t43 77l114 -84q-14 -19 -34 -62.5t-36.5 -100.5t-25 -122t0.5 -126q4 -28 18.5 -70.5t47.5 -82t90 -67.5t148 -28h12.5t11.5 1q152 7 245 60.5t125 152.5
q19 61 20 123.5t-9 119.5t-26.5 106.5t-32.5 86.5t-28.5 58t-13.5 21l119 76q2 -3 17.5 -30t35.5 -71.5t40 -104t31 -129t8.5 -146t-27.5 -153.5q-21 -66 -61.5 -120.5t-100.5 -93.5q-130 -88 -336 -97q-7 0 -14 -0.5t-14 -0.5zM700 664l-116 -116l-117 117l116 116z" />
    <glyph glyph-name="u0647" unicode="&#x647;" horiz-adv-x="641" arabic-form="isolated" 
d="M306 -7q-3 0 -17 0.5t-35 4t-46.5 10.5t-52.5 19q-68 32 -103.5 86.5t-35.5 127.5q0 128 117 269q23 28 45 50t38 37q-21 20 -34 30.5t-13 11.5l90 109q1 -1 15.5 -13.5t37.5 -33.5t52 -50.5t60 -63.5q174 -197 174 -346q0 -73 -32.5 -127.5t-95.5 -85.5
q-23 -11 -46.5 -18t-45.5 -11t-40.5 -5t-31.5 -1zM315 496q-21 -18 -48.5 -47t-51.5 -63.5t-41 -71.5t-17 -73q0 -21 10 -44.5t48 -41.5q27 -13 54 -16.5t37 -3.5q7 0 18.5 0.5t25.5 2.5t28.5 5.5t28.5 10.5q26 14 38 34.5t12 52.5q0 46 -35.5 111t-103.5 141z" />
    <glyph glyph-name="u0648" unicode="&#x648;" horiz-adv-x="688" arabic-form="isolated" 
d="M177 -492l-69 123q72 40 135 86t114 94t87.5 96t55.5 93q-29 -1 -63.5 -0.5t-73.5 3.5q-156 11 -229 102q-66 82 -43 208q19 120 83 200q35 45 78 68.5t89 23.5q102 0 186 -92q36 -40 63.5 -92.5t45 -112.5t23.5 -125t0 -130q-7 -69 -45.5 -142.5t-107.5 -148.5
q-132 -144 -329 -254zM341 464q-26 0 -56 -38q-20 -25 -33.5 -60t-21.5 -77q-12 -64 15 -97q11 -14 27 -23t34 -14.5t35.5 -8t30.5 -3.5q45 -2 82.5 -1.5t65.5 2.5q-4 91 -32.5 162t-65.5 112q-14 15 -35 30.5t-46 15.5z" />
    <glyph glyph-name="u0649" unicode="&#x649;" horiz-adv-x="1230" arabic-form="isolated" 
d="M958 618q49 10 94 7t79.5 -10.5t55.5 -16t23 -9.5l-62 -131l-13.5 5t-35.5 10t-51 7t-60 -5q-65 -13 -119 -54t-89 -103q-26 -44 -34.5 -87.5t1.5 -72.5q10 -28 46 -40t97 -23q45 -8 88.5 -18.5t79.5 -36.5q16 -12 32.5 -29.5t27.5 -42.5t15 -59t-3 -77
q-13 -70 -63 -128.5t-133 -100.5q-78 -40 -178 -60.5t-217 -20.5q-135 0 -239 38.5t-170 113.5q-59 67 -83 155.5t-11 193.5q6 46 16 96t22 97t24.5 90t22.5 75.5t17 52.5t8 23l137 -48q0 -1 -6.5 -19.5t-16 -49t-21.5 -71t-23 -85t-20.5 -90.5t-14.5 -88q-3 -26 -3.5 -55.5
t5.5 -60.5t19 -61.5t37 -57.5q45 -51 121 -77t179 -26q102 0 182 16.5t137 43t89.5 60.5t38.5 70q3 18 3 29.5t-2.5 18.5t-5.5 10t-6 5q-17 11 -47.5 18t-63.5 13q-35 6 -70 14t-67 22q-89 39 -118 123q-20 60 -8.5 133.5t52.5 145.5q51 90 130.5 149t174.5 79z" />
    <glyph glyph-name="u064A" unicode="&#x64a;" horiz-adv-x="1240" arabic-form="isolated" 
d="M958 618q49 10 94 7t79.5 -10.5t55.5 -16t23 -9.5l-62 -131l-13.5 5t-35.5 10t-51 7t-60 -5q-65 -13 -119 -54t-89 -103q-26 -44 -34.5 -87.5t1.5 -72.5q10 -28 46 -40t97 -23q45 -8 88.5 -18.5t79.5 -36.5q16 -12 32.5 -29.5t27.5 -42.5t15 -59t-3 -77
q-13 -70 -63 -128.5t-133 -100.5q-78 -40 -178 -60.5t-217 -20.5q-135 0 -239 38.5t-170 113.5q-59 67 -83 155.5t-11 193.5q6 46 16 96t22 97t24.5 90t22.5 75.5t17 52.5t8 23l137 -48q0 -1 -6.5 -19.5t-16 -49t-21.5 -71t-23 -85t-20.5 -90.5t-14.5 -88q-3 -26 -3.5 -55.5
t5.5 -60.5t19 -61.5t37 -57.5q45 -51 121 -77t179 -26q102 0 182 16.5t137 43t89.5 60.5t38.5 70q3 18 3 29.5t-2.5 18.5t-5.5 10t-6 5q-17 11 -47.5 18t-63.5 13q-35 6 -70 14t-67 22q-89 39 -118 123q-20 60 -8.5 133.5t52.5 145.5q51 90 130.5 149t174.5 79z" />
    <glyph glyph-name="u067E" unicode="&#x67e;" horiz-adv-x="1396" arabic-form="isolated" 
d="M699 -18q-257 2 -411 59q-147 57 -200 164q-29 57 -29.5 125t27.5 142q20 51 40.5 83.5t23.5 37.5l113 -84q-8 -12 -16 -26q-7 -12 -15 -28t-15 -36q-33 -91 -3 -150q35 -70 160 -107.5t325 -38.5q114 0 203 13t154 38q48 20 80.5 45t49.5 57q16 30 19 62.5t-2 64.5
t-15.5 60.5t-20.5 50.5t-18 35t-9 14l118 78q2 -2 13.5 -21.5t26 -51t28 -73.5t19 -89t-1 -97.5t-32.5 -98.5q-59 -110 -203 -167q-157 -61 -409 -61zM711 -253l-116 -116l-117 117l116 116zM964 -254l-116 -116l-117 117l116 116zM844 -450l-116 -116l-117 117l116 116z
" />
    <glyph glyph-name="u0686" unicode="&#x686;" horiz-adv-x="1190" arabic-form="isolated" 
d="M674 -534q-77 0 -137.5 9t-93.5 20q-162 53 -249 155q-55 64 -79 141.5t-16 169.5q7 72 34 137t77 123q42 49 95.5 89.5t117.5 69.5q87 41 182 64t183 34q-20 10 -39.5 19t-38.5 19q-75 37 -136.5 64.5t-103.5 33.5q-99 14 -179 -71q-16 -17 -27.5 -33.5t-19.5 -30.5
q-10 -16 -16 -30l-130 54q1 3 7 16t17 31.5t27.5 41.5t38.5 47q63 68 139.5 97t161.5 18q60 -8 128.5 -38.5t155.5 -72.5q78 -39 166 -80t191 -75l-26 -137q-1 0 -30 1t-77.5 -0.5t-111 -6t-131.5 -15t-138.5 -29.5t-132.5 -48q-26 -12 -64.5 -36t-76.5 -61t-67 -88.5
t-35 -118.5q-21 -232 247 -320q13 -5 38.5 -9.5t58.5 -7.5t73 -4t83 2q35 3 76.5 9.5t84 20t83.5 34.5t77 52l93 -107q-51 -45 -111 -74.5t-123 -47t-126 -24.5t-120 -7zM647 7l-116 -116l-117 117l116 116zM902 6l-116 -116l-117 117l116 116zM780 -190l-116 -116l-117 117
l116 116z" />
    <glyph glyph-name="u0698" unicode="&#x698;" horiz-adv-x="573" arabic-form="isolated" 
d="M325 834l116 116l117 -117l-116 -116zM72 835l116 116l117 -117l-116 -116zM192 1031l116 116l117 -117l-116 -116zM393 450q20 -67 38 -132q7 -28 15 -58t14.5 -60t11.5 -58t8 -52q1 -8 1.5 -18t0.5 -22q0 -93 -40 -178t-106 -158.5t-151 -134t-175 -105.5l-62 126
q75 37 145.5 86t126 106.5t89 123t33.5 134.5q0 4 -0.5 12t-1.5 16v-1q-3 22 -7.5 48t-11 53.5t-13.5 55t-14 53.5q-17 60 -37 120z" />
    <glyph glyph-name="u06AF" unicode="&#x6af;" horiz-adv-x="1541" arabic-form="isolated" 
d="M1485 1277l-653 -278l5 91l614 259zM1569 1068l-567 -238q22 -17 46.5 -37.5t50.5 -44.5q216 -197 245 -371q23 -127 -56 -229q-8 -11 -37.5 -39t-91.5 -57q-54 -25 -110.5 -39.5t-114 -21.5t-116.5 -8t-118 1q-258 2 -411 58q-147 57 -200 164q-29 57 -29.5 124.5
t27.5 142.5q20 51 40.5 83.5t23.5 37.5l113 -84l-16 -26q-7 -12 -15 -28t-15 -36q-33 -92 -3 -150q35 -70 160.5 -107t326.5 -38q75 -3 135 0.5t107 11t81.5 17.5t58.5 20q45 18 63.5 33t22.5 19l2 2l3 5q42 54 30 120q-23 126 -199 289q-35 32 -68.5 59t-59.5 46t-41.5 30
l-15.5 11l11 124l682 286zM1175 303h-1l2 2v-1z" />
    <glyph glyph-name="uFB57" unicode="&#x67e;" horiz-adv-x="1558" arabic-form="final" 
d="M661 -252l-116 -116l-117 117l116 116zM914 -253l-116 -116l-117 117l116 116zM794 -449l-116 -116l-117 117l116 116zM1282 117q-14 17 -25 36.5t-19 41.5q-12 -14 -25.5 -26t-27.5 -24q-183 -147 -542 -147q-217 1 -357.5 55t-204.5 163q-28 47 -38.5 97t-9 97t11 89
t21 74t21 51.5t10.5 22.5l124 -68q0 -1 -6.5 -14t-14.5 -35.5t-15.5 -52t-9 -61.5t4 -65.5t23.5 -63.5q43 -72 154.5 -109t285.5 -38q157 0 268.5 28t184.5 87q33 26 56.5 57t40.5 63.5t28.5 66t20.5 65.5l136 -37q-8 -29 -18 -60h1q-1 -5 -4.5 -28t-2.5 -53.5t9 -64
t30 -60.5q51 -63 170 -63q29 0 50 -21t21 -50t-21 -49.5t-50 -20.5h-6q-186 2 -275 117z" />
    <glyph glyph-name="uFB58" unicode="&#x67e;" horiz-adv-x="520" arabic-form="initial" 
d="M236 -254l-116 -116l-117 117l116 116zM489 -255l-116 -116l-117 117l116 116zM369 -451l-116 -116l-117 117l116 116zM-72 70q0 29 20.5 50t49.5 21h101q38 -1 73 0.5t64.5 10t52 25.5t36.5 47q14 31 8 88t-29 132q-8 23 -18.5 50t-20.5 50q-11 26 -23 53l127 63
q0 -1 6.5 -15t17 -37.5t22.5 -54.5t23 -66q66 -205 16 -320q-51 -115 -180 -151q-38 -11 -75 -13.5t-69 -2.5h-126h-6q-29 0 -49.5 20.5t-20.5 49.5z" />
    <glyph glyph-name="uFB59" unicode="&#x67e;" horiz-adv-x="533" arabic-form="medial" 
d="M266 -249l-116 -116l-117 117l116 116zM519 -250l-116 -116l-117 117l116 116zM399 -446l-116 -116l-117 117l116 116zM-72 70q0 29 20.5 50t49.5 21h32q120 0 174.5 42.5t54.5 128.5q0 41 -8.5 99t-24.5 113l134 38q19 -66 29 -133.5t10 -116.5v-4q0 -26 5 -55.5
t18 -54.5t36.5 -41t60.5 -16h16q29 0 50 -21t21 -50t-21 -49.5t-50 -20.5h-16q-72 0 -119 25t-77 64q-45 -45 -117 -67t-176 -22h-26h-6q-29 0 -49.5 20.5t-20.5 49.5z" />
    <glyph glyph-name="uFB7B" unicode="&#x686;" horiz-adv-x="1165" arabic-form="final" 
d="M587 -18l-116 -116l-117 117l116 116zM840 -19l-116 -116l-117 117l116 116zM720 -215l-116 -116l-117 117l116 116zM662 -555q-76 0 -136.5 9t-93.5 20q-161 53 -250 155q-110 128 -93 311q12 143 109 260q42 49 96 89.5t118 70.5q87 40 181.5 63t183.5 34l-77 37
q-75 38 -137 65.5t-104 33.5q-99 14 -179 -71q-16 -17 -27.5 -33.5t-19.5 -30t-12 -22.5l-4 -8l-131 54q1 3 7.5 16t17.5 31.5t27.5 41.5t38.5 47q63 68 139.5 97t161.5 18q60 -8 129 -38.5t155 -73.5q78 -38 166 -79t191 -75l-27 -137q-2 0 -46 1t-114 -3q-1 -8 -1.5 -22
t1.5 -30.5t8.5 -34t19.5 -33.5q17 -21 41.5 -34t53 -20.5t57.5 -10t55 -2.5q29 0 50 -21t21 -50t-21 -49.5t-50 -20.5q-223 0 -319 122q-26 34 -41 76t-17 90q-2 15 0 27q-79 -10 -162 -29.5t-157 -53.5q-25 -12 -64 -36t-76.5 -61t-66.5 -88.5t-35 -118.5
q-21 -232 247 -320q13 -5 38 -9.5t58.5 -8t73 -4t83.5 2.5q35 3 76.5 9.5t84 19.5t84 34t76.5 53l93 -107q-51 -45 -111 -74.5t-123 -47t-126 -24.5t-121 -7z" />
    <glyph glyph-name="uFB7C" unicode="&#x686;" horiz-adv-x="1108" arabic-form="initial" 
d="M475 -235l-116 -116l-117 117l116 116zM728 -236l-116 -116l-117 117l116 116zM608 -432l-116 -116l-117 117l116 116zM-88 71q0 29 21 49.5t50 20.5h125q96 0 184 18t171 47t161.5 66.5t155.5 75.5l13 7q-48 17 -93.5 37.5t-89.5 40.5q-66 32 -126 56.5t-105 24.5
q-30 0 -56.5 -13t-48.5 -32.5t-40 -42t-30.5 -42t-19.5 -33l-7 -13.5l-129 58q1 1 6.5 12t15.5 28.5t24.5 39.5t34.5 45q111 134 250 134q69 0 142 -29t150 -65q42 -20 85 -39.5t86.5 -34.5t87.5 -24.5t88 -9.5l27 -136q-50 -20 -99.5 -44.5t-102.5 -50.5
q-78 -39 -162 -78.5t-175.5 -71.5t-190.5 -52t-207 -20h-119h-6q-29 0 -50 21t-21 50z" />
    <glyph glyph-name="uFB7D" unicode="&#x686;" horiz-adv-x="1140" arabic-form="medial" 
d="M537 -246l-116 -116l-117 117l116 116zM790 -247l-116 -116l-117 117l116 116zM670 -443l-116 -116l-117 117l116 116zM-78 70q0 29 21 50t50 21h95q96 0 184 18t171 47.5t161.5 67t155.5 75.5l13 6q-48 17 -93.5 38t-89.5 41q-66 31 -126 55.5t-106 24.5
q-30 0 -56.5 -13t-48.5 -32.5t-39.5 -42t-30 -42t-19.5 -32.5l-7 -13l-129 58q0 1 5.5 12t15.5 28.5t25 39.5t34 45q56 66 119 100t131 34q69 0 142 -29t150 -65q42 -20 85.5 -39.5t87 -35t87 -25t87.5 -9.5l28 -135q-32 -14 -64.5 -29t-65.5 -31q12 -41 44 -64t70 -35
t73.5 -15t55.5 -3h4h6q29 0 50 -21t21 -50t-21 -49.5t-50 -20.5h-10q-141 0 -238 52t-133 143q-73 -36 -151.5 -71t-162.5 -62.5t-175 -44.5t-190 -17h-95q-29 0 -50 20.5t-21 49.5z" />
    <glyph glyph-name="uFB8B" unicode="&#x698;" horiz-adv-x="667" arabic-form="final" 
d="M347 724l116 116l117 -117l-116 -116zM94 725l116 116l117 -117l-116 -116zM214 921l116 116l117 -117l-116 -116zM494 53v-3q0 -93 -40 -178t-106 -158.5t-151 -134t-175 -105.5l-62 126q78 39 151.5 90.5t129.5 112.5t87 130.5t24 144.5v-1q-5 40 -15.5 87t-23 92
t-24.5 84.5t-20 66.5l134 41v-1q6 -19 17.5 -49.5t27 -64.5t36.5 -68t46.5 -61.5t56 -45t65.5 -17.5h23h6q29 0 50 -21t21 -50t-21 -49.5t-50 -20.5h-6h-23q-45 0 -84.5 14.5t-73.5 38.5z" />
    <glyph glyph-name="uFEDA" unicode="&#x6a9;" horiz-adv-x="1675" arabic-form="final" 
d="M1677 141q29 0 49.5 -21t20.5 -50t-20.5 -49.5t-49.5 -20.5q-118 0 -216 45t-161 133q-23 -39 -61 -65.5t-78 -45.5q-149 -67 -392 -67h-66q-76 0 -143 6q-54 4 -104.5 11.5t-99.5 21.5q-9 2 -25 7.5t-33.5 12t-32 12t-20.5 8.5q-41 21 -76 49q-46 35 -77 95q-1 1 -1 3
q-24 52 -29 119.5t28 144.5q22 51 41.5 83.5l22.5 37.5l113 -84q-11 -18 -20 -35q-8 -14 -15.5 -29.5t-10.5 -25.5q-33 -92 -3 -150q28 -55 111 -90t216 -49q48 -4 90.5 -5t74.5 -1q145 -6 237 10.5t139 36.5q49 20 68 36.5t20 18.5q34 45 34.5 89t-16.5 87v1
q-43 107 -186 238q-53 48 -99 82.5t-69 50.5l-15 11l11 124l682 286l54 -130l-566 -238q22 -17 46.5 -37.5t50.5 -44.5q84 -75 138 -146.5t82 -140.5q7 -14 12.5 -29t11.5 -32q12 -34 26 -69.5t35 -68t50.5 -61t73.5 -49.5q28 -13 63 -19t78 -7h6z" />
    <glyph glyph-name="uFEDB" unicode="&#x6a9;" horiz-adv-x="718" arabic-form="initial" 
d="M-71 70q0 29 21 50t50 21h10h52q35 0 71 -0.5t72 1t67.5 9t57.5 24t42 45.5q43 74 9 169q-30 88 -121 188q-40 44 -82 81t-76 64t-56 42l-22 15l11 125l682 285l55 -130l-567 -238q35 -29 76.5 -66.5t82.5 -82.5q81 -90 120.5 -168t49 -144t-3.5 -120t-35 -94
q-64 -113 -215 -141q-29 -5 -62 -5h-212h-6q-29 0 -50 20.5t-21 49.5z" />
    <glyph glyph-name="uFEDC" unicode="&#x6a9;" horiz-adv-x="817" arabic-form="medial" 
d="M-71 70q0 29 21 50t50 21h6h235q46 0 80 28q24 20 39.5 48.5t21.5 59.5q7 36 0 71.5t-22 69.5q-30 68 -79.5 125t-103.5 108q-38 35 -77.5 66.5t-81.5 60.5q-1 1 -2.5 1.5t-2.5 2.5h-1v1l11 122l682 287l55 -130l-567 -238q60 -49 114.5 -102t101.5 -114q20 -27 38 -55.5
t33 -59.5q7 -13 12.5 -25.5t10.5 -26.5q3 -9 5.5 -18.5t6.5 -17.5q12 -30 25 -58.5t30 -55.5q18 -31 39.5 -59.5t51.5 -48.5q12 -8 24.5 -14.5t26.5 -11.5q40 -14 87 -16h30q29 0 49.5 -21t20.5 -50t-20.5 -49.5t-49.5 -20.5h-6q-26 0 -53 1t-53 8q-15 4 -30 7.5t-30 8.5
q-52 21 -97 57q-23 16 -42 39l-13 15q-5 5 -8.5 10.5t-8.5 10.5q-25 -47 -61 -80q-22 -20 -47 -33.5t-52 -23.5q-14 -5 -29 -9.5t-30 -6.5q-15 -3 -30.5 -3t-31.5 -1h-207q-29 0 -50 20.5t-21 49.5z" />
    <glyph glyph-name="uFB93" unicode="&#x6af;" horiz-adv-x="1667" arabic-form="final" 
d="M1494 1285l-661 -281l5 91l622 262zM1677 141q29 0 49.5 -21t20.5 -50t-20.5 -49.5t-49.5 -20.5q-118 0 -216 45t-161 133q-23 -39 -61 -65.5t-78 -45.5q-149 -67 -392 -67h-66q-76 0 -143 6q-54 4 -104.5 11.5t-99.5 21.5q-9 2 -25 7.5t-33.5 12t-32 12t-20.5 8.5
q-41 21 -76 49q-46 35 -77 95q-1 1 -1 3q-24 52 -29 119.5t28 144.5q22 51 41.5 83.5l22.5 37.5l113 -84q-11 -18 -20 -35q-8 -14 -15.5 -29.5t-10.5 -25.5q-33 -92 -3 -150q28 -55 111 -90t216 -49q48 -4 90.5 -5t74.5 -1q145 -6 237 10.5t139 36.5q49 20 68 36.5t20 18.5
q34 45 34.5 89t-16.5 87v1q-43 107 -186 238q-53 48 -99 82.5t-69 50.5l-15 11l11 124l682 286l54 -130l-566 -238q22 -17 46.5 -37.5t50.5 -44.5q84 -75 138 -146.5t82 -140.5q7 -14 12.5 -29t11.5 -32q12 -34 26 -69.5t35 -68t50.5 -61t73.5 -49.5q28 -13 63 -19t78 -7h6z
" />
    <glyph glyph-name="uFB94" unicode="&#x6af;" horiz-adv-x="715" arabic-form="initial" 
d="M-71 70q0 29 21 50t50 21h10h52q35 0 71 -0.5t72 1t67.5 9t57.5 24t42 45.5q43 74 9 169q-30 88 -121 188q-40 44 -82 81t-76 64t-56 42l-22 15l11 125l682 285l55 -130l-567 -238q35 -29 76.5 -66.5t82.5 -82.5q81 -90 120.5 -168t49 -144t-3.5 -120t-35 -94
q-64 -113 -215 -141q-29 -5 -62 -5h-212h-6q-29 0 -50 20.5t-21 49.5zM691 1268l-653 -278l5 91l614 259z" />
    <glyph glyph-name="uFB95" unicode="&#x6af;" horiz-adv-x="820" arabic-form="medial" 
d="M-71 70q0 29 21 50t50 21h6h235q46 0 80 28q24 20 39.5 48.5t21.5 59.5q7 36 0 71.5t-22 69.5q-30 68 -79.5 125t-103.5 108q-38 35 -77.5 66.5t-81.5 60.5q-1 1 -2.5 1.5t-2.5 2.5h-1v1l11 122l682 287l55 -130l-567 -238q60 -49 114.5 -102t101.5 -114q20 -27 38 -55.5
t33 -59.5q7 -13 12.5 -25.5t10.5 -26.5q3 -9 5.5 -18.5t6.5 -17.5q12 -30 25 -58.5t30 -55.5q18 -31 39.5 -59.5t51.5 -48.5q12 -8 24.5 -14.5t26.5 -11.5q40 -14 87 -16h30q29 0 49.5 -21t20.5 -50t-20.5 -49.5t-49.5 -20.5h-6q-26 0 -53 1t-53 8q-15 4 -30 7.5t-30 8.5
q-52 21 -97 57q-23 16 -42 39l-13 15q-5 5 -8.5 10.5t-8.5 10.5q-25 -47 -61 -80q-22 -20 -47 -33.5t-52 -23.5q-14 -5 -29 -9.5t-30 -6.5q-15 -3 -30.5 -3t-31.5 -1h-207q-29 0 -50 20.5t-21 49.5zM672 1268l-654 -278l5 90l617 261z" />
    <glyph glyph-name="uFE94" unicode="&#x6c0;" horiz-adv-x="713" arabic-form="final" 
d="M458 1114q-8 2 -19 4q-9 2 -21 3.5t-26 1.5q-11 0 -22 -1.5t-22 -6.5v1q-23 -10 -37 -30.5t-14 -43.5q0 -11 6 -26l-1 1q11 -25 36 -42t56 -17q17 0 30 5q19 6 36.5 15.5t31.5 17.5q16 10 31 21l42 -56q-28 -20 -70 -44t-103 -57l-162 -90l-34 62l128 71q-29 13 -52 35.5
t-35 50.5q-5 12 -7.5 25t-2.5 28q0 45 26 83t69 55q33 13 70 13q16 0 31.5 -2.5t27.5 -4.5q14 -3 27 -6zM393 501q-26 -11 -57 -27.5t-61.5 -39.5t-57.5 -52t-45 -65q-1 -5 -2 -17t8 -23q5 -6 21 -15.5t51 -15.5q35 -5 79.5 -5t101.5 7q-8 42 -17.5 102t-20.5 151zM323 100
q-184 0 -256 89q-20 24 -28.5 50.5t-9.5 51t3 45.5t10 35l1 4q29 60 73.5 106t92.5 79t93 54t75 32q-5 54 -8 79.5t-3 26.5l140 29v1q1 1 11 -105q5 -54 9.5 -93l7.5 -65q11 -92 20 -151t16 -93.5t12 -49.5t7 -19q17 -39 45.5 -52t78.5 -13q29 0 50 -21t21 -50t-21 -49.5
t-50 -20.5q-27 0 -64.5 4.5t-74.5 21.5q-57 28 -94 87q-45 -7 -83.5 -10t-73.5 -3z" />
    <glyph glyph-name="uFEF2" unicode="&#x6cc;" horiz-adv-x="1137" arabic-form="final" 
d="M540 -466q-35 0 -82 2.5t-99 15.5q-160 40 -237 155q-77 113 -68 293q9 194 121 466l131 -53q-91 -223 -108 -382t41 -246q29 -42 71.5 -64.5t88.5 -33t89 -11.5t73 -1h15q23 0 53.5 3.5t65 10t70.5 16.5t69 24q16 6 40 17.5t46.5 27.5t38.5 35t16 41q0 17 -33 45.5
t-114 58.5q-33 12 -65.5 21t-57.5 15t-41 9l-16 3l11 139h486q29 0 50 -21t21 -50t-21 -49.5t-50 -20.5h-107q24 -20 39 -40.5t24 -40t12 -37t3 -32.5q0 -27 -9 -59.5t-34.5 -66t-70.5 -66t-116 -60.5q-41 -17 -84.5 -29t-84.5 -19.5t-77.5 -11.5t-63.5 -4h-36z" />
    <glyph glyph-name="uFEF3" unicode="&#x6cc;" horiz-adv-x="523" arabic-form="initial" 
d="M234 -285l-116 -116l-117 117l116 116zM477 -286l-116 -116l-117 117l116 116zM-70 70q0 29 20.5 50t49.5 21h88q38 -1 73 0.5t64.5 10t52 25.5t36.5 47q14 31 8 88t-29 132q-8 23 -18.5 50t-20.5 50q-11 26 -23 53l127 63q0 -1 6.5 -15t17 -37.5t22.5 -54.5t23 -66
q66 -205 16 -320q-51 -115 -180 -151q-38 -11 -75 -13.5t-69 -2.5h-113h-6q-29 0 -49.5 20.5t-20.5 49.5z" />
    <glyph glyph-name="uFEF4" unicode="&#x6cc;" horiz-adv-x="528" arabic-form="medial" 
d="M268 -277l-116 -116l-117 117l116 116zM511 -278l-116 -116l-117 117l116 116zM-72 70q0 29 20.5 50t49.5 21h32q120 0 174.5 42.5t54.5 128.5q0 41 -8.5 99t-24.5 113l134 38q19 -66 29 -133.5t10 -116.5v-4q0 -26 5 -55.5t18 -54.5t36.5 -41t60.5 -16h16q29 0 50 -21
t21 -50t-21 -49.5t-50 -20.5h-16q-72 0 -119 25t-77 64q-45 -45 -117 -67t-176 -22h-26h-6q-29 0 -49.5 20.5t-20.5 49.5z" />
    <glyph glyph-name="Hcircumflex" unicode="&#x622;" horiz-adv-x="462" arabic-form="final" 
d="M-44 1136q0 1 3 9.5t7.5 19.5t10 23.5t11.5 22.5q23 36 53 58t62 28q7 2 15.5 2h15.5q31 0 56.5 -8t47.5 -17q20 -8 38.5 -13.5t40.5 -6.5q17 -1 33.5 7.5t30 20.5t23.5 23.5t15 16.5l81 -53q-1 -2 -15 -21t-38.5 -40t-58.5 -38t-74 -16q-29 1 -54 8t-46 15l-12 4
q-23 9 -42 15t-41 2q-13 -2 -24.5 -13t-20.5 -25.5t-15 -29.5t-9 -23zM463 0q-78 0 -134.5 19t-94.5 57q-24 24 -36.5 51t-18 53.5t-6.5 50.5t-1 41v13q0 1 0.5 26.5t1 68.5t0.5 99.5t-1 119.5q0 61 -1.5 127.5t-4.5 128.5t-7.5 114.5t-11.5 86.5l140 26q7 -36 12 -89.5
t8 -115.5t4.5 -129.5t1.5 -131.5q1 -63 1 -120.5v-103t-0.5 -74.5t-0.5 -35v-13q-1 -31 2 -55t19 -40q33 -33 122 -34h6q29 0 50 -21t21 -50t-21 -49.5t-50 -20.5z" />
    <glyph glyph-name="uFE84" unicode="&#x623;" horiz-adv-x="467" arabic-form="final" 
d="M302 1421q-8 2 -19 4q-9 2 -21 3.5t-26 1.5q-11 0 -22 -1.5t-22 -6.5v1q-23 -10 -37 -30.5t-14 -43.5q0 -11 6 -26l-1 1q11 -25 36 -42t56 -17q17 0 30 5q19 6 36.5 15.5t31.5 17.5q16 10 31 21l42 -56q-28 -20 -70 -44t-103 -57l-162 -90l-34 62l128 71q-29 13 -52 35.5
t-35 50.5q-5 12 -7.5 25t-2.5 28q0 45 26 83t69 55q33 13 70 13q16 0 31.5 -2.5t27.5 -4.5q14 -3 27 -6zM474 0q-78 0 -134.5 19t-94.5 57q-24 24 -36.5 51t-18 53.5t-6.5 50.5t-1 41v13q0 1 0.5 26.5t1 68.5t0.5 99.5t-1 119.5q0 61 -1.5 127.5t-4.5 128.5t-7.5 114.5
t-11.5 86.5l140 26q7 -36 12 -89.5t8 -115.5t4.5 -129.5t1.5 -131.5q1 -63 1 -120.5v-103t-0.5 -74.5t-0.5 -35v-13q-1 -31 2 -55t19 -40q33 -33 122 -34h6q29 0 50 -21t21 -50t-21 -49.5t-50 -20.5z" />
    <glyph glyph-name="uFE86" unicode="&#x624;" horiz-adv-x="679" arabic-form="final" 
d="M325 959q-8 2 -19 4q-9 2 -21 3.5t-26 1.5q-11 0 -22 -1.5t-22 -6.5v1q-23 -10 -37 -30.5t-14 -43.5q0 -11 6 -26l-1 1q11 -25 36 -42t56 -17q17 0 30 5q19 6 36.5 15.5t31.5 17.5q16 10 31 21l42 -56q-28 -20 -70 -44t-103 -57l-162 -90l-34 62l128 71q-29 13 -52 35.5
t-35 50.5q-5 12 -7.5 25t-2.5 28q0 45 26 83t69 55q33 13 70 13q16 0 31.5 -2.5t27.5 -4.5q14 -3 27 -6zM296 466q-27 0 -56 -38q-20 -25 -33.5 -59.5t-21.5 -77.5q-11 -65 15 -96q11 -15 27.5 -24.5t34 -16t34.5 -10t31 -4.5h148q-3 94 -32 166.5t-66 113.5
q-14 17 -35 31.5t-46 14.5zM132 -489l-69 123q71 40 133.5 85.5t112.5 93t87 95t57 92.5q-28 1 -62 1.5t-73 4.5q-157 9 -229 102q-65 83 -43 208q11 60 31.5 110t51.5 89q35 45 78 68.5t89 23.5q103 0 186 -92q61 -67 95.5 -166.5t38.5 -208.5h62q29 0 50 -20.5t21 -50.5
q0 -29 -21 -49t-50 -20h-75q-16 -57 -52 -116t-90 -120q-64 -69 -147 -134t-182 -119z" />
    <glyph glyph-name="uFE88" unicode="&#x625;" horiz-adv-x="407" arabic-form="final" 
d="M291 -137q-8 2 -19 4q-9 2 -21 3.5t-26 1.5q-11 0 -22 -1.5t-22 -6.5v1q-23 -10 -37 -30.5t-14 -43.5q0 -11 6 -26l-1 1q11 -25 36 -42t56 -17q17 0 30 5q19 6 36.5 15.5t31.5 17.5q16 10 31 21l42 -56q-28 -20 -70 -44t-103 -57l-162 -90l-34 62l128 71q-29 13 -52 35.5
t-35 50.5q-5 12 -7.5 25t-2.5 28q0 45 26 83t69 55q33 13 70 13q16 0 31.5 -2.5t27.5 -4.5q14 -3 27 -6zM408 0q-78 0 -134.5 19t-94.5 57q-24 24 -36.5 51t-18 53.5t-6.5 50.5t-1 41v13q0 1 0.5 26.5t1 68.5t0.5 99.5t-1 119.5q0 61 -1.5 127.5t-4.5 128.5t-7.5 114.5
t-11.5 86.5l140 26q7 -36 12 -89.5t8 -115.5t4.5 -129.5t1.5 -131.5q1 -63 1 -120.5v-103t-0.5 -74.5t-0.5 -35v-13q-1 -31 2 -55t19 -40q33 -33 122 -34h6q29 0 50 -21t21 -50t-21 -49.5t-50 -20.5z" />
    <glyph glyph-name="uFE8A" unicode="&#x626;" horiz-adv-x="1145" arabic-form="final" 
d="M643 554q-8 2 -19 4q-9 2 -21 3.5t-26 1.5q-11 0 -22 -1.5t-22 -6.5v1q-23 -10 -37 -30.5t-14 -43.5q0 -11 6 -26l-1 1q11 -25 36 -42t56 -17q17 0 30 5q19 6 36.5 15.5t31.5 17.5q16 10 31 21l42 -56q-28 -20 -70 -44t-103 -57l-162 -90l-34 62l128 71q-29 13 -52 35.5
t-35 50.5q-5 12 -7.5 25t-2.5 28q0 45 26 83t69 55q33 13 70 13q16 0 31.5 -2.5t27.5 -4.5q14 -3 27 -6zM540 -466q-35 0 -82 2.5t-99 15.5q-160 40 -237 155q-77 113 -68 293q9 194 121 466l131 -53q-91 -223 -108 -382t41 -246q29 -42 71.5 -64.5t88.5 -33t89 -11.5t73 -1
h15q23 0 53.5 3.5t65 10t70.5 16.5t69 24q16 6 40 17.5t46.5 27.5t38.5 35t16 41q0 17 -33 45.5t-114 58.5q-33 12 -65.5 21t-57.5 15t-41 9l-16 3l11 139h486q29 0 50 -21t21 -50t-21 -49.5t-50 -20.5h-107q24 -20 39 -40.5t24 -40t12 -37t3 -32.5q0 -27 -9 -59.5
t-34.5 -66t-70.5 -66t-116 -60.5q-41 -17 -84.5 -29t-84.5 -19.5t-77.5 -11.5t-63.5 -4h-36z" />
    <glyph glyph-name="uFE8B" unicode="&#x626;" horiz-adv-x="462" arabic-form="initial" 
d="M281 976q-8 2 -19 4q-9 2 -21 3.5t-26 1.5q-11 0 -22 -1.5t-22 -6.5v1q-23 -10 -37 -30.5t-14 -43.5q0 -11 6 -26l-1 1q11 -25 36 -42t56 -17q17 0 30 5q19 6 36.5 15.5t31.5 17.5q16 10 31 21l42 -56q-28 -20 -70 -44t-103 -57l-162 -90l-34 62l128 71q-29 13 -52 35.5
t-35 50.5q-5 12 -7.5 25t-2.5 28q0 45 26 83t69 55q33 13 70 13q16 0 31.5 -2.5t27.5 -4.5q14 -3 27 -6zM-98 70q0 29 20.5 50t49.5 21h88q38 -1 73 0.5t64.5 10t52 25.5t36.5 47q14 31 8 88t-29 132q-8 23 -18.5 50t-20.5 50q-11 26 -23 53l127 63q0 -1 6.5 -15t17 -37.5
t22.5 -54.5t23 -66q66 -205 16 -320q-51 -115 -180 -151q-38 -11 -75 -13.5t-69 -2.5h-113h-6q-29 0 -49.5 20.5t-20.5 49.5z" />
    <glyph glyph-name="uFE8C" unicode="&#x626;" horiz-adv-x="501" arabic-form="medial" 
d="M310 896q-8 2 -19 4q-9 2 -21 3.5t-26 1.5q-11 0 -22 -1.5t-22 -6.5v1q-23 -10 -37 -30.5t-14 -43.5q0 -11 6 -26l-1 1q11 -25 36 -42t56 -17q17 0 30 5q19 6 36.5 15.5t31.5 17.5q16 10 31 21l42 -56q-28 -20 -70 -44t-103 -57l-162 -90l-34 62l128 71q-29 13 -52 35.5
t-35 50.5q-5 12 -7.5 25t-2.5 28q0 45 26 83t69 55q33 13 70 13q16 0 31.5 -2.5t27.5 -4.5q14 -3 27 -6zM-70 70q0 29 20.5 50t49.5 21h12q121 0 175.5 42.5t54.5 128.5q0 41 -8.5 99t-24.5 113l134 38q19 -66 29 -133.5t10 -116.5v-4q0 -26 5 -55.5t18 -54.5t36 -41t60 -16
q29 0 50 -21t21 -50t-20.5 -49.5t-49.5 -20.5q-72 0 -119 25t-77 64q-45 -45 -117.5 -67t-176.5 -22h-12q-29 0 -49.5 20.5t-20.5 49.5z" />
    <glyph glyph-name="uFE8E" unicode="&#x627;" horiz-adv-x="400" arabic-form="final" 
d="M408 0q-78 0 -134.5 19t-94.5 57q-24 24 -36.5 51t-18 53.5t-6.5 50.5t-1 41v13q0 1 0.5 26.5t1 68.5t0.5 99.5t-1 119.5q0 61 -1.5 127.5t-4.5 128.5t-7.5 114.5t-11.5 86.5l140 26q7 -36 12 -89.5t8 -115.5t4.5 -129.5t1.5 -131.5q1 -63 1 -120.5v-103t-0.5 -74.5
t-0.5 -35v-13q-1 -31 2 -55t19 -40q33 -33 122 -34h6q29 0 50 -21t21 -50t-21 -49.5t-50 -20.5z" />
    <glyph glyph-name="uFE90" unicode="&#x628;" horiz-adv-x="1559" arabic-form="final" 
d="M795 -287l-116 -116l-117 117l116 116zM1282 117q-14 17 -25 36.5t-19 41.5q-12 -14 -25.5 -26t-27.5 -24q-183 -147 -542 -147q-217 1 -357.5 55t-204.5 163q-28 47 -38.5 97t-9 97t11 89t21 74t21 51.5t10.5 22.5l124 -68q0 -1 -6.5 -14t-14.5 -35.5t-15.5 -52
t-9 -61.5t4 -65.5t23.5 -63.5q43 -72 154.5 -109t285.5 -38q157 0 268.5 28t184.5 87q33 26 56.5 57t40.5 63.5t28.5 66t20.5 65.5l136 -37q-8 -29 -18 -60h1q-1 -5 -4.5 -28t-2.5 -53.5t9 -64t30 -60.5q51 -63 170 -63q29 0 50 -21t21 -50t-21 -49.5t-50 -20.5h-6
q-186 2 -275 117z" />
    <glyph glyph-name="uFE91" unicode="&#x628;" horiz-adv-x="427" arabic-form="initial" 
d="M293 -276l-116 -116l-117 117l116 116zM-84 70q0 29 20.5 50t49.5 21h41q38 -1 73 0.5t64.5 10t52 25.5t36.5 47q14 31 8 88t-29 132q-8 23 -18.5 50t-20.5 50q-11 26 -23 53l127 63q0 -1 6.5 -15t17 -37.5t22.5 -54.5t23 -66q66 -205 16 -320q-51 -115 -180 -151
q-38 -11 -75 -13.5t-69 -2.5h-66h-6q-29 0 -49.5 20.5t-20.5 49.5z" />
    <glyph glyph-name="uFE92" unicode="&#x628;" horiz-adv-x="501" arabic-form="medial" 
d="M403 -276l-116 -116l-117 117l116 116zM-70 70q0 29 20.5 50t49.5 21h12q121 0 175.5 42.5t54.5 128.5q0 41 -8.5 99t-24.5 113l134 38q19 -66 29 -133.5t10 -116.5v-4q0 -26 5 -55.5t18 -54.5t36 -41t60 -16q29 0 50 -21t21 -50t-20.5 -49.5t-49.5 -20.5q-72 0 -119 25
t-77 64q-45 -45 -117.5 -67t-176.5 -22h-12q-29 0 -49.5 20.5t-20.5 49.5z" />
    <glyph glyph-name="uFE96" unicode="&#x62a;" horiz-adv-x="1559" arabic-form="final" 
d="M690 742l-116 -116l-117 117l116 116zM933 741l-116 -116l-117 117l116 116zM1282 117q-14 17 -25 36.5t-19 41.5q-12 -14 -25.5 -26t-27.5 -24q-183 -147 -542 -147q-217 1 -357.5 55t-204.5 163q-28 47 -38.5 97t-9 97t11 89t21 74t21 51.5t10.5 22.5l124 -68
q0 -1 -6.5 -14t-14.5 -35.5t-15.5 -52t-9 -61.5t4 -65.5t23.5 -63.5q43 -72 154.5 -109t285.5 -38q157 0 268.5 28t184.5 87q33 26 56.5 57t40.5 63.5t28.5 66t20.5 65.5l136 -37q-8 -29 -18 -60h1q-1 -5 -4.5 -28t-2.5 -53.5t9 -64t30 -60.5q51 -63 170 -63q29 0 50 -21
t21 -50t-21 -49.5t-50 -20.5h-6q-186 2 -275 117z" />
    <glyph glyph-name="uFE97" unicode="&#x62a;" horiz-adv-x="495" arabic-form="initial" 
d="M243 846l-116 -116l-117 117l116 116zM478 845l-116 -116l-117 117l116 116zM-91 70q0 29 20.5 50t49.5 21h88q38 -1 73 0.5t64.5 10t52 25.5t36.5 47q14 31 8 88t-29 132q-8 23 -18.5 50t-20.5 50q-11 26 -23 53l127 63q0 -1 6.5 -15t17 -37.5t22.5 -54.5t23 -66
q66 -205 16 -320q-51 -115 -180 -151q-38 -11 -75 -13.5t-69 -2.5h-113h-6q-29 0 -49.5 20.5t-20.5 49.5z" />
    <glyph glyph-name="uFE98" unicode="&#x62a;" horiz-adv-x="502" arabic-form="medial" 
d="M248 772l-116 -116l-117 117l116 116zM491 771l-116 -116l-117 117l116 116zM-70 70q0 29 20.5 50t49.5 21h12q121 0 175.5 42.5t54.5 128.5q0 41 -8.5 99t-24.5 113l134 38q19 -66 29 -133.5t10 -116.5v-4q0 -26 5 -55.5t18 -54.5t36 -41t60 -16q29 0 50 -21t21 -50
t-20.5 -49.5t-49.5 -20.5q-72 0 -119 25t-77 64q-45 -45 -117.5 -67t-176.5 -22h-12q-29 0 -49.5 20.5t-20.5 49.5z" />
    <glyph glyph-name="uFE9A" unicode="&#x62b;" horiz-adv-x="1511" arabic-form="final" 
d="M1521 0q-190 0 -281 117q-14 17 -25 36.5t-19 41.5q-12 -14 -25.5 -26t-27.5 -24q-183 -147 -542 -147q-217 1 -357.5 55t-204.5 163q-28 47 -38.5 97t-9 97t11 89t21 74t21 51.5t10.5 22.5l124 -68q0 -1 -6.5 -14t-14.5 -35.5t-15.5 -52t-9 -61.5t4 -65.5t23.5 -63.5
q43 -72 154.5 -109t285.5 -38q157 0 268.5 28t184.5 87q33 26 56.5 57t40.5 63.5t28.5 66t20.5 65.5l136 -37q-8 -29 -18 -60h1q-1 -5 -4.5 -28t-2.5 -53.5t9 -64t30 -60.5q51 -63 170 -63v-141zM696 642l116 116l117 -117l-116 -116zM443 643l116 116l117 -117l-116 -116z
M563 839l116 116l117 -117l-116 -116z" />
    <glyph glyph-name="uFE9B" unicode="&#x62b;" horiz-adv-x="505" arabic-form="initial" 
d="M265 842l116 116l117 -117l-116 -116zM12 843l116 116l117 -117l-116 -116zM132 1039l116 116l117 -117l-116 -116zM-71 70q0 29 20.5 50t49.5 21h88q38 -1 73 0.5t64.5 10t52 25.5t36.5 47q14 31 8 88t-29 132q-8 23 -18.5 50t-20.5 50q-11 26 -23 53l127 63
q0 -1 6.5 -15t17 -37.5t22.5 -54.5t23 -66q66 -205 16 -320q-51 -115 -180 -151q-38 -11 -75 -13.5t-69 -2.5h-113h-6q-29 0 -49.5 20.5t-20.5 49.5z" />
    <glyph glyph-name="uFE9C" unicode="&#x62b;" horiz-adv-x="532" arabic-form="medial" 
d="M268 822l116 116l117 -117l-116 -116zM15 823l116 116l117 -117l-116 -116zM135 1019l116 116l117 -117l-116 -116zM-72 70q0 29 20.5 50t49.5 21h32q120 0 174.5 42.5t54.5 128.5q0 41 -8.5 99t-24.5 113l134 38q19 -66 29 -133.5t10 -116.5v-4q0 -26 5 -55.5t18 -54.5
t36.5 -41t60.5 -16h16q29 0 50 -21t21 -50t-21 -49.5t-50 -20.5h-16q-72 0 -119 25t-77 64q-45 -45 -117 -67t-176 -22h-26h-6q-29 0 -49.5 20.5t-20.5 49.5z" />
    <glyph glyph-name="uFE9E" unicode="&#x62c;" horiz-adv-x="1233" arabic-form="final" 
d="M821 -98l-116 -116l-117 117l116 116zM737 -555q-76 0 -136.5 9t-93.5 20q-161 53 -250 155q-110 128 -93 311q12 143 109 260q42 49 96 89.5t118 70.5q87 40 181.5 63t183.5 34l-77 37q-75 38 -137 65.5t-104 33.5q-99 14 -179 -71q-16 -17 -27.5 -33.5t-19.5 -30
t-12 -22.5l-4 -8l-131 54q1 3 7.5 16t17.5 31.5t27.5 41.5t38.5 47q63 68 139.5 97t161.5 18q60 -8 129 -38.5t155 -73.5q78 -38 166 -79t191 -75l-27 -137q-2 0 -46 1t-114 -3q-1 -8 -1.5 -22t1.5 -30.5t8.5 -34t19.5 -33.5q17 -21 41.5 -34t53 -20.5t57.5 -10t55 -2.5
q29 0 50 -21t21 -50t-21 -49.5t-50 -20.5q-223 0 -319 122q-26 34 -41 76t-17 90q-2 15 0 27q-79 -10 -162 -29.5t-157 -53.5q-25 -12 -64 -36t-76.5 -61t-66.5 -88.5t-35 -118.5q-21 -232 247 -320q13 -5 38 -9.5t58.5 -8t73 -4t83.5 2.5q35 3 76.5 9.5t84 19.5t84 34
t76.5 53l93 -107q-51 -45 -111 -74.5t-123 -47t-126 -24.5t-121 -7z" />
    <glyph glyph-name="uFE9F" unicode="&#x62c;" horiz-adv-x="1102" arabic-form="initial" 
d="M651 -259l-116 -116l-117 117l116 116zM-88 71q0 29 21 49.5t50 20.5h125q96 0 184 18t171 47t161.5 66.5t155.5 75.5l13 7q-48 17 -93.5 37.5t-89.5 40.5q-66 32 -126 56.5t-105 24.5q-30 0 -56.5 -13t-48.5 -32.5t-40 -42t-30.5 -42t-19.5 -33l-7 -13.5l-129 58
q1 1 6.5 12t15.5 28.5t24.5 39.5t34.5 45q111 134 250 134q69 0 142 -29t150 -65q42 -20 85 -39.5t86.5 -34.5t87.5 -24.5t88 -9.5l27 -136q-50 -20 -99.5 -44.5t-102.5 -50.5q-78 -39 -162 -78.5t-175.5 -71.5t-190.5 -52t-207 -20h-119h-6q-29 0 -50 21t-21 50z" />
    <glyph glyph-name="uFEA0" unicode="&#x62c;" horiz-adv-x="1137" arabic-form="medial" 
d="M660 -267l-116 -116l-117 117l116 116zM-78 70q0 29 21 50t50 21h95q96 0 184 18t171 47.5t161.5 67t155.5 75.5l13 6q-48 17 -93.5 38t-89.5 41q-66 31 -126 55.5t-106 24.5q-30 0 -56.5 -13t-48.5 -32.5t-39.5 -42t-30 -42t-19.5 -32.5l-7 -13l-129 58q0 1 5.5 12
t15.5 28.5t25 39.5t34 45q56 66 119 100t131 34q69 0 142 -29t150 -65q42 -20 85.5 -39.5t87 -35t87 -25t87.5 -9.5l28 -135q-32 -14 -64.5 -29t-65.5 -31q12 -41 44 -64t70 -35t73.5 -15t55.5 -3h4h6q29 0 50 -21t21 -50t-21 -49.5t-50 -20.5h-10q-141 0 -238 52t-133 143
q-73 -36 -151.5 -71t-162.5 -62.5t-175 -44.5t-190 -17h-95q-29 0 -50 20.5t-21 49.5z" />
    <glyph glyph-name="uFEA2" unicode="&#x62d;" horiz-adv-x="1233" arabic-form="final" 
d="M737 -555q-76 0 -136.5 9t-93.5 20q-161 53 -250 155q-110 128 -93 311q12 143 109 260q42 49 96 89.5t118 70.5q87 40 181.5 63t183.5 34l-77 37q-75 38 -137 65.5t-104 33.5q-99 14 -179 -71q-16 -17 -27.5 -33.5t-19.5 -30t-12 -22.5l-4 -8l-131 54q1 3 7.5 16
t17.5 31.5t27.5 41.5t38.5 47q63 68 139.5 97t161.5 18q60 -8 129 -38.5t155 -73.5q78 -38 166 -79t191 -75l-27 -137q-2 0 -46 1t-114 -3q-1 -8 -1.5 -22t1.5 -30.5t8.5 -34t19.5 -33.5q17 -21 41.5 -34t53 -20.5t57.5 -10t55 -2.5q29 0 50 -21t21 -50t-21 -49.5t-50 -20.5
q-223 0 -319 122q-26 34 -41 76t-17 90q-2 15 0 27q-79 -10 -162 -29.5t-157 -53.5q-25 -12 -64 -36t-76.5 -61t-66.5 -88.5t-35 -118.5q-21 -232 247 -320q13 -5 38 -9.5t58.5 -8t73 -4t83.5 2.5q35 3 76.5 9.5t84 19.5t84 34t76.5 53l93 -107q-51 -45 -111 -74.5t-123 -47
t-126 -24.5t-121 -7z" />
    <glyph glyph-name="uFEA3" unicode="&#x62d;" horiz-adv-x="1102" arabic-form="initial" 
d="M-88 71q0 29 21 49.5t50 20.5h125q96 0 184 18t171 47t161.5 66.5t155.5 75.5l13 7q-48 17 -93.5 37.5t-89.5 40.5q-66 32 -126 56.5t-105 24.5q-30 0 -56.5 -13t-48.5 -32.5t-40 -42t-30.5 -42t-19.5 -33l-7 -13.5l-129 58q1 1 6.5 12t15.5 28.5t24.5 39.5t34.5 45
q111 134 250 134q69 0 142 -29t150 -65q42 -20 85 -39.5t86.5 -34.5t87.5 -24.5t88 -9.5l27 -136q-50 -20 -99.5 -44.5t-102.5 -50.5q-78 -39 -162 -78.5t-175.5 -71.5t-190.5 -52t-207 -20h-119h-6q-29 0 -50 21t-21 50z" />
    <glyph glyph-name="uFEA4" unicode="&#x62d;" horiz-adv-x="1140" arabic-form="medial" 
d="M-78 70q0 29 21 50t50 21h95q96 0 184 18t171 47.5t161.5 67t155.5 75.5l13 6q-48 17 -93.5 38t-89.5 41q-66 31 -126 55.5t-106 24.5q-30 0 -56.5 -13t-48.5 -32.5t-39.5 -42t-30 -42t-19.5 -32.5l-7 -13l-129 58q0 1 5.5 12t15.5 28.5t25 39.5t34 45q56 66 119 100
t131 34q69 0 142 -29t150 -65q42 -20 85.5 -39.5t87 -35t87 -25t87.5 -9.5l28 -135q-32 -14 -64.5 -29t-65.5 -31q12 -41 44 -64t70 -35t73.5 -15t55.5 -3h4h6q29 0 50 -21t21 -50t-21 -49.5t-50 -20.5h-10q-141 0 -238 52t-133 143q-73 -36 -151.5 -71t-162.5 -62.5
t-175 -44.5t-190 -17h-95q-29 0 -50 20.5t-21 49.5z" />
    <glyph glyph-name="uFEA6" unicode="&#x62e;" horiz-adv-x="1233" arabic-form="final" 
d="M725 987l-116 -116l-117 117l116 116zM737 -555q-76 0 -136.5 9t-93.5 20q-161 53 -250 155q-110 128 -93 311q12 143 109 260q42 49 96 89.5t118 70.5q87 40 181.5 63t183.5 34l-77 37q-75 38 -137 65.5t-104 33.5q-99 14 -179 -71q-16 -17 -27.5 -33.5t-19.5 -30
t-12 -22.5l-4 -8l-131 54q1 3 7.5 16t17.5 31.5t27.5 41.5t38.5 47q63 68 139.5 97t161.5 18q60 -8 129 -38.5t155 -73.5q78 -38 166 -79t191 -75l-27 -137q-2 0 -46 1t-114 -3q-1 -8 -1.5 -22t1.5 -30.5t8.5 -34t19.5 -33.5q17 -21 41.5 -34t53 -20.5t57.5 -10t55 -2.5
q29 0 50 -21t21 -50t-21 -49.5t-50 -20.5q-223 0 -319 122q-26 34 -41 76t-17 90q-2 15 0 27q-79 -10 -162 -29.5t-157 -53.5q-25 -12 -64 -36t-76.5 -61t-66.5 -88.5t-35 -118.5q-21 -232 247 -320q13 -5 38 -9.5t58.5 -8t73 -4t83.5 2.5q35 3 76.5 9.5t84 19.5t84 34
t76.5 53l93 -107q-51 -45 -111 -74.5t-123 -47t-126 -24.5t-121 -7z" />
    <glyph glyph-name="uFEA7" unicode="&#x62e;" horiz-adv-x="1108" arabic-form="initial" 
d="M393 910l-116 -116l-117 117l116 116zM-88 71q0 29 21 49.5t50 20.5h125q96 0 184 18t171 47t161.5 66.5t155.5 75.5l13 7q-48 17 -93.5 37.5t-89.5 40.5q-66 32 -126 56.5t-105 24.5q-30 0 -56.5 -13t-48.5 -32.5t-40 -42t-30.5 -42t-19.5 -33l-7 -13.5l-129 58
q1 1 6.5 12t15.5 28.5t24.5 39.5t34.5 45q111 134 250 134q69 0 142 -29t150 -65q42 -20 85 -39.5t86.5 -34.5t87.5 -24.5t88 -9.5l27 -136q-50 -20 -99.5 -44.5t-102.5 -50.5q-78 -39 -162 -78.5t-175.5 -71.5t-190.5 -52t-207 -20h-119h-6q-29 0 -50 21t-21 50z" />
    <glyph glyph-name="uFEA8" unicode="&#x62e;" horiz-adv-x="1140" arabic-form="medial" 
d="M452 911l-116 -116l-117 117l116 116zM-78 70q0 29 21 50t50 21h95q96 0 184 18t171 47.5t161.5 67t155.5 75.5l13 6q-48 17 -93.5 38t-89.5 41q-66 31 -126 55.5t-106 24.5q-30 0 -56.5 -13t-48.5 -32.5t-39.5 -42t-30 -42t-19.5 -32.5l-7 -13l-129 58q0 1 5.5 12
t15.5 28.5t25 39.5t34 45q56 66 119 100t131 34q69 0 142 -29t150 -65q42 -20 85.5 -39.5t87 -35t87 -25t87.5 -9.5l28 -135q-32 -14 -64.5 -29t-65.5 -31q12 -41 44 -64t70 -35t73.5 -15t55.5 -3h4h6q29 0 50 -21t21 -50t-21 -49.5t-50 -20.5h-10q-141 0 -238 52t-133 143
q-73 -36 -151.5 -71t-162.5 -62.5t-175 -44.5t-190 -17h-95q-29 0 -50 20.5t-21 49.5z" />
    <glyph glyph-name="uFEAA" unicode="&#x62f;" horiz-adv-x="836" arabic-form="final" 
d="M332 0q-84 0 -161.5 23.5t-149.5 60.5l65 125q211 -107 365 -46q36 14 59.5 31t35.5 29l-226 543l130 54q22 -56 55 -134q28 -67 68.5 -165t95.5 -229q14 -34 25 -62t28.5 -47.5t45.5 -30.5t77 -11q29 0 50 -21t21 -50t-21 -49.5t-50 -20.5q-46 0 -82 7.5t-64 20.5
t-48.5 30t-35.5 37q-21 -16 -49 -33t-63 -31q-40 -16 -78.5 -23.5t-92.5 -7.5z" />
    <glyph glyph-name="uFEAC" unicode="&#x630;" horiz-adv-x="837" arabic-form="final" 
d="M548 1054l-116 -116l-117 117l116 116zM332 0q-84 0 -161.5 23.5t-149.5 60.5l65 125q211 -107 365 -46q36 14 59.5 31t35.5 29l-226 543l130 54q22 -56 55 -134q28 -67 68.5 -165t95.5 -229q14 -34 25 -62t28.5 -47.5t45.5 -30.5t77 -11q29 0 50 -21t21 -50t-21 -49.5
t-50 -20.5q-46 0 -82 7.5t-64 20.5t-48.5 30t-35.5 37q-21 -16 -49 -33t-63 -31q-40 -16 -78.5 -23.5t-92.5 -7.5z" />
    <glyph glyph-name="uFEAE" unicode="&#x631;" horiz-adv-x="658" arabic-form="final" 
d="M494 53v-3q0 -93 -40 -178t-106 -158.5t-151 -134t-175 -105.5l-62 126q78 39 151.5 90.5t129.5 112.5t87 130.5t24 144.5v-1q-5 40 -15.5 87t-23 92t-24.5 84.5t-20 66.5l134 41v-1q6 -19 17.5 -49.5t27 -64.5t36.5 -68t46.5 -61.5t56 -45t65.5 -17.5h23h6q29 0 50 -21
t21 -50t-21 -49.5t-50 -20.5h-6h-23q-45 0 -84.5 14.5t-73.5 38.5z" />
    <glyph glyph-name="uFEB0" unicode="&#x632;" horiz-adv-x="655" arabic-form="final" 
d="M428 775l-116 -116l-117 117l116 116zM494 53v-3q0 -93 -40 -178t-106 -158.5t-151 -134t-175 -105.5l-62 126q78 39 151.5 90.5t129.5 112.5t87 130.5t24 144.5v-1q-5 40 -15.5 87t-23 92t-24.5 84.5t-20 66.5l134 41v-1q6 -19 17.5 -49.5t27 -64.5t36.5 -68t46.5 -61.5
t56 -45t65.5 -17.5h23h6q29 0 50 -21t21 -50t-21 -49.5t-50 -20.5h-6h-23q-45 0 -84.5 14.5t-73.5 38.5z" />
    <glyph glyph-name="uFEB2" unicode="&#x633;" horiz-adv-x="2098" arabic-form="final" 
d="M2106 141q29 0 50 -21t21 -50t-21 -49.5t-50 -20.5h-6h-8q-118 0 -199 95q-21 22 -39 54q-10 -23 -21.5 -41t-25.5 -34q-32 -35 -73.5 -54.5t-91.5 -19.5q-20 0 -42.5 6.5t-45 18.5t-43 29.5t-35.5 40.5q-43 -51 -97 -71.5t-114 -23.5q-34 -2 -60 5t-44 15q-21 10 -38 23
q2 -62 -7 -121.5t-31 -113.5t-59 -100.5t-91 -82.5q-130 -88 -336 -97q-7 0 -14 -0.5t-14 -0.5q-189 0 -310 107q-54 48 -89.5 115.5t-46.5 146.5q-7 44 -6.5 87.5t5.5 84t13.5 76.5t17.5 65q22 73 47.5 125t43.5 77l114 -84q-14 -19 -34 -62.5t-36.5 -100.5t-25 -122
t0.5 -126q4 -28 18 -70t47.5 -81.5t91 -67.5t147.5 -28h24q304 14 369 213q19 58 23.5 121t-1 123t-19 114t-31.5 96q-17 38 -21.5 49t-4.5 12l119 77q3 -8 7 -19q3 -9 7.5 -21.5t11.5 -28.5q18 -45 34 -92t38 -85t54 -62t81 -24q55 0 84.5 30t43.5 77t17 104t5 111l145 -11
q-1 -11 -1 -22q-1 -9 -1 -19.5t-1 -19.5q-1 -18 -2 -43.5t1 -54t7 -56.5t15.5 -50t28 -36t43.5 -14q20 0 32 8t24 22q24 26 38.5 78t19.5 122q2 32 1.5 59.5t-1.5 47.5q-2 18 -2.5 29t-0.5 12l140 10q1 0 1.5 -11t1.5 -29q4 -29 11.5 -75t23.5 -97q56 -173 158 -173h14z" />
    <glyph glyph-name="uFEB3" unicode="&#x633;" horiz-adv-x="1148" arabic-form="initial" 
d="M-76 70q0 28 19 48.5t47 22.5q42 0 76 16.5t60 44t46 63t34.5 74.5t24 78.5t16.5 74.5l141 -30q-5 -17 -13.5 -44t-16.5 -58t-13.5 -63.5t-5.5 -60.5q0 -19 3.5 -37.5t12 -32.5t23.5 -23t38 -9q36 0 65 20t51.5 52t39.5 73t28.5 83t19 82t12.5 69l137 -25l-4 -23
t-9 -56.5t-9.5 -71t-4.5 -66.5q0 -27 4 -50.5t13 -42t23.5 -30t35.5 -14.5q33 -4 54.5 1t34.5 13.5t19 17.5t9 13h-1q10 16 14 36t4 43q0 40 -11 87.5t-26.5 93t-32 84t-28.5 61.5l125 66q6 -11 24.5 -50t38.5 -94t36 -120t16 -126t-17 -111t-51.5 -85t-86.5 -54t-121 -18
q-55 1 -107 32t-83 77q-43 -51 -97.5 -80t-114.5 -29q-26 0 -54.5 7t-54 20.5t-46.5 33.5t-33 46q-42 -45 -96.5 -71t-130.5 -28h-11q-28 2 -47 21.5t-19 48.5z" />
    <glyph glyph-name="uFEB4" unicode="&#x633;" horiz-adv-x="1313" arabic-form="medial" 
d="M-78 70q0 28 21.5 48.5t49.5 22.5h7q30 0 57 16t50.5 41t43.5 55.5t35 59.5q15 28 27 56.5t21 53t15.5 44t9.5 31.5l3 12t1 5l137 -38l-5 -17t-11.5 -48.5t-11.5 -69.5q-8 -62 -3.5 -109t19.5 -71q10 -18 31 -21q5 -1 8.5 -1.5t7.5 -0.5q26 0 52 18q32 24 63 76.5
t55 127.5q12 35 19.5 66.5t12.5 53.5q3 18 5.5 28.5t2.5 11.5l139 -26q-1 -1 -2.5 -11.5t-5.5 -28.5q-3 -19 -6 -45.5t-4 -56.5q-3 -66 6 -113.5t29 -71.5q8 -10 21.5 -18t39.5 -8q37 0 60 26q24 26 38.5 77.5t19.5 121.5q2 32 1.5 59.5t-1.5 47.5q-2 18 -2.5 29t-0.5 12
l140 11q1 -1 1.5 -11.5t1.5 -28.5q4 -29 11.5 -75.5t23.5 -96.5q56 -173 158 -173h8h6q29 0 49.5 -21t20.5 -50t-20.5 -49.5t-49.5 -20.5h-6h-8q-58 0 -108.5 24t-90.5 70q-21 24 -39 54q-19 -43 -47 -74q-66 -74 -166 -74q-53 0 -96.5 20.5t-74.5 58.5q-10 13 -18.5 27
t-15.5 31q-40 -59 -87 -94q-63 -45 -135 -45q-20 0 -39 3q-84 15 -129 86q-13 23 -24 53q-23 -30 -48 -54q-89 -86 -195 -86h-7q-29 0 -50 20.5t-21 49.5z" />
    <glyph glyph-name="uFEB6" unicode="&#x634;" horiz-adv-x="2096" arabic-form="final" 
d="M1474 772l116 116l117 -117l-116 -116zM1221 773l116 116l117 -117l-116 -116zM1341 969l116 116l117 -117l-116 -116zM2106 141q29 0 50 -21t21 -50t-21 -49.5t-50 -20.5h-6h-8q-118 0 -199 95q-21 22 -39 54q-10 -23 -21.5 -41t-25.5 -34q-32 -35 -73.5 -54.5
t-91.5 -19.5q-20 0 -42.5 6.5t-45 18.5t-43 29.5t-35.5 40.5q-43 -51 -97 -71.5t-114 -23.5q-34 -2 -60 5t-44 15q-21 10 -38 23q2 -62 -7 -121.5t-31 -113.5t-59 -100.5t-91 -82.5q-130 -88 -336 -97q-7 0 -14 -0.5t-14 -0.5q-189 0 -310 107q-54 48 -89.5 115.5
t-46.5 146.5q-7 44 -6.5 87.5t5.5 84t13.5 76.5t17.5 65q22 73 47.5 125t43.5 77l114 -84q-14 -19 -34 -62.5t-36.5 -100.5t-25 -122t0.5 -126q4 -28 18 -70t47.5 -81.5t91 -67.5t147.5 -28h24q304 14 369 213q19 58 23.5 121t-1 123t-19 114t-31.5 96q-17 38 -21.5 49
t-4.5 12l119 77q3 -8 7 -19q3 -9 7.5 -21.5t11.5 -28.5q18 -45 34 -92t38 -85t54 -62t81 -24q55 0 84.5 30t43.5 77t17 104t5 111l145 -11q-1 -11 -1 -22q-1 -9 -1 -19.5t-1 -19.5q-1 -18 -2 -43.5t1 -54t7 -56.5t15.5 -50t28 -36t43.5 -14q20 0 32 8t24 22q24 26 38.5 78
t19.5 122q2 32 1.5 59.5t-1.5 47.5q-2 18 -2.5 29t-0.5 12l140 10q1 0 1.5 -11t1.5 -29q4 -29 11.5 -75t23.5 -97q56 -173 158 -173h14z" />
    <glyph glyph-name="uFEB7" unicode="&#x634;" horiz-adv-x="1148" arabic-form="initial" 
d="M681 792l116 116l117 -117l-116 -116zM428 793l116 116l117 -117l-116 -116zM548 989l116 116l117 -117l-116 -116zM-76 70q0 28 19 48.5t47 22.5q42 0 76 16.5t60 44t46 63t34.5 74.5t24 78.5t16.5 74.5l141 -30q-5 -17 -13.5 -44t-16.5 -58t-13.5 -63.5t-5.5 -60.5
q0 -19 3.5 -37.5t12 -32.5t23.5 -23t38 -9q36 0 65 20t51.5 52t39.5 73t28.5 83t19 82t12.5 69l137 -25l-4 -23t-9 -56.5t-9.5 -71t-4.5 -66.5q0 -27 4 -50.5t13 -42t23.5 -30t35.5 -14.5q33 -4 54.5 1t34.5 13.5t19 17.5t9 13h-1q10 16 14 36t4 43q0 40 -11 87.5t-26.5 93
t-32 84t-28.5 61.5l125 66q6 -11 24.5 -50t38.5 -94t36 -120t16 -126t-17 -111t-51.5 -85t-86.5 -54t-121 -18q-55 1 -107 32t-83 77q-43 -51 -97.5 -80t-114.5 -29q-26 0 -54.5 7t-54 20.5t-46.5 33.5t-33 46q-42 -45 -96.5 -71t-130.5 -28h-11q-28 2 -47 21.5t-19 48.5z
" />
    <glyph glyph-name="uFEB8" unicode="&#x634;" horiz-adv-x="1313" arabic-form="medial" 
d="M711 784l116 116l117 -117l-116 -116zM458 785l116 116l117 -117l-116 -116zM578 981l116 116l117 -117l-116 -116zM-78 70q0 28 21.5 48.5t49.5 22.5h7q30 0 57 16t50.5 41t43.5 55.5t35 59.5q15 28 27 56.5t21 53t15.5 44t9.5 31.5l3 12t1 5l137 -38l-5 -17
t-11.5 -48.5t-11.5 -69.5q-8 -62 -3.5 -109t19.5 -71q10 -18 31 -21q5 -1 8.5 -1.5t7.5 -0.5q26 0 52 18q32 24 63 76.5t55 127.5q12 35 19.5 66.5t12.5 53.5q3 18 5.5 28.5t2.5 11.5l139 -26q-1 -1 -2.5 -11.5t-5.5 -28.5q-3 -19 -6 -45.5t-4 -56.5q-3 -66 6 -113.5
t29 -71.5q8 -10 21.5 -18t39.5 -8q37 0 60 26q24 26 38.5 77.5t19.5 121.5q2 32 1.5 59.5t-1.5 47.5q-2 18 -2.5 29t-0.5 12l140 11q1 -1 1.5 -11.5t1.5 -28.5q4 -29 11.5 -75.5t23.5 -96.5q56 -173 158 -173h8h6q29 0 49.5 -21t20.5 -50t-20.5 -49.5t-49.5 -20.5h-6h-8
q-58 0 -108.5 24t-90.5 70q-21 24 -39 54q-19 -43 -47 -74q-66 -74 -166 -74q-53 0 -96.5 20.5t-74.5 58.5q-10 13 -18.5 27t-15.5 31q-40 -59 -87 -94q-63 -45 -135 -45q-20 0 -39 3q-84 15 -129 86q-13 23 -24 53q-23 -30 -48 -54q-89 -86 -195 -86h-7q-29 0 -50 20.5
t-21 49.5z" />
    <glyph glyph-name="uFEBA" unicode="&#x635;" horiz-adv-x="1957" arabic-form="final" 
d="M1201 149q47 -16 111 -25.5t132 -7.5t134 17.5t117 48.5q83 53 89 146q2 32 -12 55t-26 35q-20 21 -43.5 32t-47 15.5t-46.5 4t-41 -3.5q-57 -10 -113.5 -40.5t-104.5 -76.5q-54 -51 -90.5 -106t-58.5 -94zM1959 0q-34 0 -61.5 6t-49 16t-37.5 21.5t-27 22.5l-3 3l-9 -6
q-39 -25 -81.5 -41.5t-85 -26t-82.5 -14t-74 -5.5q-82 -3 -161.5 8.5t-142.5 35.5q-74 26 -133 69q2 -26 2.5 -51.5t-1.5 -51.5q-7 -98 -44 -182q-41 -93 -116 -157q-131 -111 -338 -111q-35 0 -72 3q-70 7 -128 23.5t-106 45.5q-91 53 -134 144q-43 85 -41 200q1 88 27 190
q11 43 24.5 82t27 70t24.5 53t17 32l119 -77q-5 -8 -18 -35.5t-28 -68t-28.5 -89.5t-20 -100.5t-2 -102t25.5 -92.5q29 -60 91 -92.5t162 -41.5q100 -8 176 10t131 64q30 26 50.5 57t33 63t18.5 63.5t8 58.5q5 60 -5 125.5t-25 124t-31 103t-23 62.5q-2 4 -3 7t-2 5l130 54
q28 -64 57 -114.5t55 -89.5q9 -14 22 -28.5t30 -27.5q13 24 30 52t39 59t48.5 62.5t58.5 61.5q63 61 138.5 100.5t151.5 53.5q91 16 169 -6.5t135 -82.5q42 -43 62 -93.5t16 -104.5q-6 -80 -47 -149q8 -10 25 -19t50 -10h6q29 0 50 -21t21 -50t-21 -49.5t-50 -20.5z" />
    <glyph glyph-name="uFEBB" unicode="&#x635;" horiz-adv-x="1342" arabic-form="initial" 
d="M555 134q57 -6 130.5 -7t148 7.5t142 29t113.5 58.5q58 48 64 122q1 31 -13 55t-26 36q-20 21 -43 32.5t-46.5 16t-46.5 3.5t-42 -4q-57 -11 -113 -41t-104 -76q-33 -31 -59.5 -64.5t-46.5 -64.5t-34.5 -58t-23.5 -45zM-71 70q0 29 21 50t50 21q43 0 73.5 6.5t51 16.5
t33 21.5t20.5 22.5q25 33 37.5 80t23.5 101q6 31 12.5 59.5t15.5 56.5l135 -41q-5 -14 -8.5 -28.5t-7.5 -29.5h1q-3 -15 -6 -42t-1.5 -58.5t10.5 -64.5t30 -59q9 21 26 53t42 70.5t58 80.5t75 82q63 60 139 100t152 53q91 17 169 -5.5t135 -82.5q42 -43 62 -93.5t16 -104.5
q-9 -137 -115 -222q-48 -39 -108 -64t-124 -39t-128.5 -19t-121.5 -5q-66 0 -115 4t-70 7q-59 6 -107 27q-30 14 -57 35.5t-59 62.5q-45 -63 -115 -92t-168 -30h-6q-29 0 -50 20.5t-21 49.5z" />
    <glyph glyph-name="uFEBC" unicode="&#x635;" horiz-adv-x="1340" arabic-form="medial" 
d="M-75 70q0 29 20.5 50t49.5 21h6q84 1 115 17q32 16 58 50q25 32 40 79.5t29 110.5q6 27 12 54.5t14 53.5l135 -42q-5 -13 -8.5 -27.5t-7.5 -30.5h1q-3 -15 -5.5 -41.5t-1 -57.5t9.5 -62t27 -54l4 -8q9 21 26.5 53t42.5 70.5t58 80.5t74 82q63 61 138 100t153 53
q91 16 169 -6.5t135 -82.5q42 -42 61.5 -92.5t16.5 -104.5q-9 -118 -86 -195h141q29 0 50 -21t21 -50t-21 -49.5t-50 -20.5h-156q-79 0 -126 4.5t-76 17.5q-75 -20 -151 -27.5t-143 -7.5q-64 0 -112 4.5t-72 6.5q-62 6 -108 27q-59 26 -101 79q-11 9 -17 22
q-46 -60 -115 -92q-73 -34 -180 -34q-29 0 -49.5 20.5t-20.5 49.5zM557 135q57 -6 130.5 -7t148 8t142 29.5t114.5 58.5q60 49 64 121q2 32 -12 55.5t-26 34.5q-21 21 -44 32.5t-46.5 16t-46 3.5t-41.5 -4q-57 -9 -113.5 -39t-105.5 -77q-33 -31 -59 -64t-46.5 -64.5
t-35 -58.5t-23.5 -45z" />
    <glyph glyph-name="uFEBE" unicode="&#x636;" horiz-adv-x="1948" arabic-form="final" 
d="M1694 905l-116 -116l-117 117l116 116zM1201 149q47 -16 111 -25.5t132 -7.5t134 17.5t117 48.5q83 53 89 146q2 32 -12 55t-26 35q-20 21 -43.5 32t-47 15.5t-46.5 4t-41 -3.5q-57 -10 -113.5 -40.5t-104.5 -76.5q-54 -51 -90.5 -106t-58.5 -94zM1959 0q-34 0 -61.5 6
t-49 16t-37.5 21.5t-27 22.5l-3 3l-9 -6q-39 -25 -81.5 -41.5t-85 -26t-82.5 -14t-74 -5.5q-82 -3 -161.5 8.5t-142.5 35.5q-74 26 -133 69q2 -26 2.5 -51.5t-1.5 -51.5q-7 -98 -44 -182q-41 -93 -116 -157q-131 -111 -338 -111q-35 0 -72 3q-70 7 -128 23.5t-106 45.5
q-91 53 -134 144q-43 85 -41 200q1 88 27 190q11 43 24.5 82t27 70t24.5 53t17 32l119 -77q-5 -8 -18 -35.5t-28 -68t-28.5 -89.5t-20 -100.5t-2 -102t25.5 -92.5q29 -60 91 -92.5t162 -41.5q100 -8 176 10t131 64q30 26 50.5 57t33 63t18.5 63.5t8 58.5q5 60 -5 125.5
t-25 124t-31 103t-23 62.5q-2 4 -3 7t-2 5l130 54q28 -64 57 -114.5t55 -89.5q9 -14 22 -28.5t30 -27.5q13 24 30 52t39 59t48.5 62.5t58.5 61.5q63 61 138.5 100.5t151.5 53.5q91 16 169 -6.5t135 -82.5q42 -43 62 -93.5t16 -104.5q-6 -80 -47 -149q8 -10 25 -19t50 -10h6
q29 0 50 -21t21 -50t-21 -49.5t-50 -20.5z" />
    <glyph glyph-name="uFEBF" unicode="&#x636;" horiz-adv-x="1358" arabic-form="initial" 
d="M1072 960l-116 -116l-117 117l116 116zM555 134q57 -6 130.5 -7t148 7.5t142 29t113.5 58.5q58 48 64 122q1 31 -13 55t-26 36q-20 21 -43 32.5t-46.5 16t-46.5 3.5t-42 -4q-57 -11 -113 -41t-104 -76q-33 -31 -59.5 -64.5t-46.5 -64.5t-34.5 -58t-23.5 -45zM-71 70
q0 29 21 50t50 21q43 0 73.5 6.5t51 16.5t33 21.5t20.5 22.5q25 33 37.5 80t23.5 101q6 31 12.5 59.5t15.5 56.5l135 -41q-5 -14 -8.5 -28.5t-7.5 -29.5h1q-3 -15 -6 -42t-1.5 -58.5t10.5 -64.5t30 -59q9 21 26 53t42 70.5t58 80.5t75 82q63 60 139 100t152 53
q91 17 169 -5.5t135 -82.5q42 -43 62 -93.5t16 -104.5q-9 -137 -115 -222q-48 -39 -108 -64t-124 -39t-128.5 -19t-121.5 -5q-66 0 -115 4t-70 7q-59 6 -107 27q-30 14 -57 35.5t-59 62.5q-45 -63 -115 -92t-168 -30h-6q-29 0 -50 20.5t-21 49.5z" />
    <glyph glyph-name="uFEC0" unicode="&#x636;" horiz-adv-x="1337" arabic-form="medial" 
d="M1081 918l-116 -116l-117 117l116 116zM-75 70q0 29 20.5 50t49.5 21h6q84 1 115 17q32 16 58 50q25 32 40 79.5t29 110.5q6 27 12 54.5t14 53.5l135 -42q-5 -13 -8.5 -27.5t-7.5 -30.5h1q-3 -15 -5.5 -41.5t-1 -57.5t9.5 -62t27 -54l4 -8q9 21 26.5 53t42.5 70.5
t58 80.5t74 82q63 61 138 100t153 53q91 16 169 -6.5t135 -82.5q42 -42 61.5 -92.5t16.5 -104.5q-9 -118 -86 -195h141q29 0 50 -21t21 -50t-21 -49.5t-50 -20.5h-156q-79 0 -126 4.5t-76 17.5q-75 -20 -151 -27.5t-143 -7.5q-64 0 -112 4.5t-72 6.5q-62 6 -108 27
q-59 26 -101 79q-11 9 -17 22q-46 -60 -115 -92q-73 -34 -180 -34q-29 0 -49.5 20.5t-20.5 49.5zM557 135q57 -6 130.5 -7t148 8t142 29.5t114.5 58.5q60 49 64 121q2 32 -12 55.5t-26 34.5q-21 21 -44 32.5t-46.5 16t-46 3.5t-41.5 -4q-57 -9 -113.5 -39t-105.5 -77
q-33 -31 -59 -64t-46.5 -64.5t-35 -58.5t-23.5 -45z" />
    <glyph glyph-name="uFEC2" unicode="&#x637;" horiz-adv-x="1161" arabic-form="final" 
d="M538 141q43 2 88 8.5t90.5 22t91 41t89.5 64.5q26 28 45 70t17 82q-5 30 -23 49.5t-42.5 30.5t-52.5 14t-53 -1q-72 -11 -158.5 -71.5t-182.5 -166.5l-64 -75l-44 -61zM1208 0h-657q-15 -1 -29.5 -1h-28.5q-17 0 -36 0.5t-54 2.5h-4q-112 5 -223 29.5t-230 70.5l52 132
q48 -19 93.5 -33.5t90.5 -25.5q15 22 37.5 52.5t51.5 67.5l5 7q9 61 13.5 109.5t5 96.5t-2.5 101t-8 124q-6 77 -12.5 143t-12 114.5t-9.5 76l-4 27.5l140 26l2 -18.5t5.5 -48.5t8 -68.5t8.5 -78.5t8 -79t6 -69q3 -40 5 -64t3 -40.5t1.5 -29.5t1 -31t1 -45.5t1.5 -72.5
q172 163 329 187q141 22 257 -71q72 -58 76 -154q3 -39 -5 -77t-23.5 -71.5t-35 -62t-38.5 -48.5l-1 -2l-1 -1q-10 -9 -20 -17.5t-20 -16.5h247h6q29 0 49.5 -21t20.5 -50t-20.5 -49.5t-49.5 -20.5z" />
    <glyph glyph-name="uFEC3" unicode="&#x637;" horiz-adv-x="1030" arabic-form="initial" 
d="M238 141q17 -1 34.5 -0.5t34.5 0.5h114.5t124 11t128 38.5t126.5 83.5q25 28 44 70t17 82q-1 23 -9 35t-16 18q-63 53 -146 41q-73 -11 -159 -72t-182 -167q-17 -20 -33 -38.5t-30 -36.5zM-104 70q0 29 21 50t50 21h6h101q10 15 33.5 56.5t67.5 95.5l5 7q15 92 16 270.5
t-15.5 344t-16.5 166.5l144 26q40 -297 32 -634q173 161 329 187q145 23 258 -71q70 -58 76 -153q3 -39 -5.5 -77t-23.5 -72t-34 -62.5t-38 -48.5l-4 -4q-63 -57 -129.5 -91t-131.5 -52t-126 -23.5t-115 -5.5h-423h-6q-29 0 -50 20.5t-21 49.5z" />
    <glyph glyph-name="uFEC4" unicode="&#x637;" horiz-adv-x="1127" arabic-form="medial" 
d="M288 141q81 0 154 -1t141.5 9.5t134 38t131.5 85.5q13 13 25 31t20.5 38.5t13 42t3.5 41.5q-2 23 -9.5 34.5t-15.5 17.5q-66 54 -146 42q-72 -13 -158 -73t-183 -166q-17 -21 -33 -39t-30 -37zM-90 70q0 29 20.5 50t49.5 21h6h128q10 15 37.5 55.5t72.5 94.5l5 7
q9 11 12.5 62t3 123.5t-4 158.5t-9 168.5t-12.5 153t-13 111.5l139 26q23 -146 34.5 -300t9.5 -330q175 163 329 187q143 23 258 -70q70 -60 76 -154q3 -40 -5.5 -78t-23.5 -71.5t-34.5 -62t-38.5 -48.5l-1 -2l-2 -2q-10 -9 -20 -14.5t-20 -14.5h239q29 0 49.5 -20.5
t20.5 -49.5t-20.5 -49.5t-49.5 -20.5h-1v-1q-54 0 -94.5 -0.5t-81.5 -0.5q-63 0 -135 5t-138 26q-69 -20 -132.5 -25t-120.5 -5h-463q-29 0 -49.5 20.5t-20.5 49.5z" />
    <glyph glyph-name="uFEC6" unicode="&#x638;" horiz-adv-x="1164" arabic-form="final" 
d="M910 915l-116 -116l-117 117l116 116zM538 141q43 2 88 8.5t90.5 22t91 41t89.5 64.5q26 28 45 70t17 82q-5 30 -23 49.5t-42.5 30.5t-52.5 14t-53 -1q-72 -11 -158.5 -71.5t-182.5 -166.5l-64 -75l-44 -61zM1208 0h-657q-15 -1 -29.5 -1h-28.5q-17 0 -36 0.5t-54 2.5h-4
q-112 5 -223 29.5t-230 70.5l52 132q48 -19 93.5 -33.5t90.5 -25.5q15 22 37.5 52.5t51.5 67.5l5 7q9 61 13.5 109.5t5 96.5t-2.5 101t-8 124q-6 77 -12.5 143t-12 114.5t-9.5 76l-4 27.5l140 26l2 -18.5t5.5 -48.5t8 -68.5t8.5 -78.5t8 -79t6 -69q3 -40 5 -64t3 -40.5
t1.5 -29.5t1 -31t1 -45.5t1.5 -72.5q172 163 329 187q141 22 257 -71q72 -58 76 -154q3 -39 -5 -77t-23.5 -71.5t-35 -62t-38.5 -48.5l-1 -2l-1 -1q-10 -9 -20 -17.5t-20 -16.5h247h6q29 0 49.5 -21t20.5 -50t-20.5 -49.5t-49.5 -20.5zM910 915l-116 -116l-117 117l116 116z
" />
    <glyph glyph-name="uFEC7" unicode="&#x638;" horiz-adv-x="1037" arabic-form="initial" 
d="M772 897l-116 -116l-117 117l116 116zM238 141q17 -1 34.5 -0.5t34.5 0.5h114.5t124 11t128 38.5t126.5 83.5q25 28 44 70t17 82q-1 23 -9 35t-16 18q-63 53 -146 41q-73 -11 -159 -72t-182 -167q-17 -20 -33 -38.5t-30 -36.5zM-104 70q0 29 21 50t50 21h6h101
q10 15 33.5 56.5t67.5 95.5l5 7q15 92 16 270.5t-15.5 344t-16.5 166.5l144 26q40 -297 32 -634q173 161 329 187q145 23 258 -71q70 -58 76 -153q3 -39 -5.5 -77t-23.5 -72t-34 -62.5t-38 -48.5l-4 -4q-63 -57 -129.5 -91t-131.5 -52t-126 -23.5t-115 -5.5h-423h-6
q-29 0 -50 20.5t-21 49.5z" />
    <glyph glyph-name="uFEC8" unicode="&#x638;" horiz-adv-x="1139" arabic-form="medial" 
d="M882 918l-116 -116l-117 117l116 116zM288 141q81 0 154 -1t141.5 9.5t134 38t131.5 85.5q13 13 25 31t20.5 38.5t13 42t3.5 41.5q-2 23 -9.5 34.5t-15.5 17.5q-66 54 -146 42q-72 -13 -158 -73t-183 -166q-17 -21 -33 -39t-30 -37zM-90 70q0 29 20.5 50t49.5 21h6h128
q10 15 37.5 55.5t72.5 94.5l5 7q9 11 12.5 62t3 123.5t-4 158.5t-9 168.5t-12.5 153t-13 111.5l139 26q23 -146 34.5 -300t9.5 -330q175 163 329 187q143 23 258 -70q70 -60 76 -154q3 -40 -5.5 -78t-23.5 -71.5t-34.5 -62t-38.5 -48.5l-1 -2l-2 -2q-10 -9 -20 -14.5
t-20 -14.5h239q29 0 49.5 -20.5t20.5 -49.5t-20.5 -49.5t-49.5 -20.5h-1v-1q-54 0 -94.5 -0.5t-81.5 -0.5q-63 0 -135 5t-138 26q-69 -20 -132.5 -25t-120.5 -5h-463q-29 0 -49.5 20.5t-20.5 49.5z" />
    <glyph glyph-name="uFECA" unicode="&#x639;" horiz-adv-x="985" arabic-form="final" 
d="M494 -388q43 -5 96.5 -6.5t114.5 7.5t128.5 31t138.5 65l73 -122q-73 -43 -149 -71t-156 -41q-34 -5 -68.5 -7.5t-70.5 -2.5q-30 0 -60.5 1.5t-62.5 5.5q-60 7 -126.5 35t-120.5 71q-66 51 -103 115q-45 75 -45 161q0 102 45 185q20 37 47.5 69t65.5 62q39 32 83.5 57
t90.5 46q-54 48 -96.5 93t-72.5 78l-19 21l-8 87q23 35 55.5 60.5t68 43.5t69.5 29t60 17q79 18 157.5 17.5t139.5 -20.5q75 -23 114 -69.5t37 -109.5q-3 -123 -111 -209q-53 -41 -119 -72q69 -43 142.5 -70.5t151.5 -27.5q29 -1 49 -21.5t20 -49.5t-20 -49t-49 -21
q-59 0 -115.5 12.5t-112 35.5t-110 55t-109.5 70q-57 -25 -111 -52t-97 -62q-105 -83 -105 -205q0 -29 8.5 -53.5t22 -45t30.5 -37t33 -29.5q45 -35 93.5 -53.5t82.5 -23.5zM376 512q35 -37 80.5 -83t102.5 -94q106 44 162 86.5t58 102.5q0 15 -17 25t-35 16
q-40 12 -88 13.5t-96 -6t-92 -23.5t-75 -37z" />
    <glyph glyph-name="uFECB" unicode="&#x639;" horiz-adv-x="706" arabic-form="initial" 
d="M544 430q-25 27 -57 48q-27 18 -65.5 33.5t-86.5 15.5q-42 0 -73.5 -14t-52.5 -37.5t-31.5 -54t-10.5 -63.5q0 -45 20 -81.5t53 -62t76.5 -38.5t91.5 -10q42 2 81 7.5t69 10.5q35 6 66 13l17 -136q-40 -11 -91 -21.5t-119 -19.5t-156 -14.5t-201 -5.5h-96q-29 0 -50 21
t-21 50t21 49.5t50 20.5h143q-52 48 -73 101t-21 116t23 119t64.5 98t98 67t122.5 25t121 -20.5t94 -44.5q46 -28 82 -64z" />
    <glyph glyph-name="uFECC" unicode="&#x639;" horiz-adv-x="754" arabic-form="medial" 
d="M753 142q29 0 50 -21t21 -50t-21 -50t-50 -21q-113 0 -200.5 21.5t-165.5 67.5q-91 -43 -186 -66.5t-201 -22.5q-29 0 -50 21t-21 50t21 50t50 21q73 0 137 12t117 33q-56 51 -114 121.5t-118 139.5l7 99q37 33 76.5 55t78 36t75 21.5t66.5 10.5q72 8 141.5 -1.5
t126.5 -33.5q38 -17 61.5 -37t36.5 -39.5t17.5 -37.5t4.5 -30q4 -33 -12 -75.5t-44 -85.5t-64 -83t-73 -68q48 -19 104.5 -28t128.5 -9zM388 257q30 16 62.5 46.5t59.5 64.5t44.5 65.5t17.5 49.5q-37 24 -86 37t-101.5 13t-106 -12.5t-99.5 -39.5q60 -72 109 -127t100 -97z
" />
    <glyph glyph-name="uFECE" unicode="&#x63a;" horiz-adv-x="984" arabic-form="final" 
d="M712 997l-116 -116l-117 117l116 116zM494 -388q43 -5 96.5 -6.5t114.5 7.5t128.5 31t138.5 65l73 -122q-73 -43 -149 -71t-156 -41q-34 -5 -68.5 -7.5t-70.5 -2.5q-30 0 -60.5 1.5t-62.5 5.5q-60 7 -126.5 35t-120.5 71q-66 51 -103 115q-45 75 -45 161q0 102 45 185
q20 37 47.5 69t65.5 62q39 32 83.5 57t90.5 46q-54 48 -96.5 93t-72.5 78l-19 21l-8 87q23 35 55.5 60.5t68 43.5t69.5 29t60 17q79 18 157.5 17.5t139.5 -20.5q75 -23 114 -69.5t37 -109.5q-3 -123 -111 -209q-53 -41 -119 -72q69 -43 142.5 -70.5t151.5 -27.5
q29 -1 49 -21.5t20 -49.5t-20 -49t-49 -21q-59 0 -115.5 12.5t-112 35.5t-110 55t-109.5 70q-57 -25 -111 -52t-97 -62q-105 -83 -105 -205q0 -29 8.5 -53.5t22 -45t30.5 -37t33 -29.5q45 -35 93.5 -53.5t82.5 -23.5zM376 512q35 -37 80.5 -83t102.5 -94q106 44 162 86.5
t58 102.5q0 15 -17 25t-35 16q-40 12 -88 13.5t-96 -6t-92 -23.5t-75 -37z" />
    <glyph glyph-name="uFECF" unicode="&#x63a;" horiz-adv-x="706" arabic-form="initial" 
d="M357 906l-104 105l104 104l104 -105zM566 430q-25 27 -57 48q-27 18 -65.5 33.5t-86.5 15.5q-42 0 -73.5 -14t-52.5 -37.5t-31.5 -54t-10.5 -63.5q0 -45 20 -81.5t53 -62t76.5 -38.5t91.5 -10q42 2 81 7.5t69 10.5q35 6 66 13l17 -136q-40 -11 -91 -21.5t-119 -19.5
t-156 -14.5t-201 -5.5h-96q-29 0 -50 21t-21 50t21 49.5t50 20.5h143q-52 48 -73 101t-21 116t23 119t64.5 98t98 67t122.5 25t121 -20.5t94 -44.5q46 -28 82 -64z" />
    <glyph glyph-name="uFED0" unicode="&#x63a;" horiz-adv-x="752" arabic-form="medial" 
d="M753 142q29 0 50 -21t21 -50t-21 -50t-50 -21q-113 0 -200.5 21.5t-165.5 67.5q-91 -43 -186 -66.5t-201 -22.5q-29 0 -50 21t-21 50t21 50t50 21q73 0 137 12t117 33q-56 51 -114 121.5t-118 139.5l7 99q37 33 76.5 55t78 36t75 21.5t66.5 10.5q72 8 141.5 -1.5
t126.5 -33.5q38 -17 61.5 -37t36.5 -39.5t17.5 -37.5t4.5 -30q4 -33 -12 -75.5t-44 -85.5t-64 -83t-73 -68q48 -19 104.5 -28t128.5 -9zM388 257q30 16 62.5 46.5t59.5 64.5t44.5 65.5t17.5 49.5q-37 24 -86 37t-101.5 13t-106 -12.5t-99.5 -39.5q60 -72 109 -127t100 -97z
M357 906l-104 105l104 104l104 -105zM357 906l-104 105l104 104l104 -105z" />
    <glyph glyph-name="uFED2" unicode="&#x641;" horiz-adv-x="1509" arabic-form="final" 
d="M1234 958l-104 -104l-105 105l104 104zM1344 173q-5 -4 -7.5 -8t-6.5 -8q44 -8 88 -12t91 -4q29 0 50 -21t21 -50t-21 -49.5t-50 -20.5q-92 0 -177 13t-159 38q-11 -4 -21 -7.5t-21 -6.5q-35 -13 -84 -23t-107 -16.5t-122 -10t-128 -3.5q-218 1 -362.5 55t-208.5 163
q-29 48 -39 97.5t-8.5 96.5t11 89t21 74t21 51.5t10.5 22.5l124 -68q0 -1 -6.5 -14t-14.5 -35.5t-15.5 -52t-9.5 -61.5t4 -65.5t24 -63.5q21 -36 55 -63t83.5 -45.5t116.5 -28.5t154 -12q66 -2 117 -1t91.5 4.5t72.5 8t60 10.5q-98 81 -98 189q0 66 20.5 126t58.5 108
t87.5 74.5t103.5 26.5q48 0 91 -18t75 -53q13 -14 26.5 -33t24.5 -45.5t18 -60.5t7 -77q0 -125 -61 -210zM1167 204q31 18 50 38.5t29 43.5t13.5 47.5t3.5 49.5q0 51 -12.5 80t-29 43.5t-33 18t-25.5 3.5q-20 0 -42.5 -13.5t-41.5 -38.5t-31.5 -61t-12.5 -80q0 -33 31.5 -66
t91.5 -60z" />
    <glyph glyph-name="uFED3" unicode="&#x641;" horiz-adv-x="610" arabic-form="initial" 
d="M263 958l-105 105l104 104l104 -105zM256 662q-10 0 -23.5 -10t-26.5 -29t-24.5 -47t-17.5 -64q-9 -54 12 -80q30 -36 108 -41q75 -3 124 0q-5 69 -27 131t-58 102q-11 13 -29 25.5t-38 12.5zM-70 70q0 29 21 50t50 21q79 0 138 7.5t102 19t71 25.5t46 28q9 8 15 14.5
t11 12.5h-72q-77 0 -143.5 24.5t-103.5 72.5q-10 13 -20 31t-16.5 42t-8 53.5t4.5 65.5q19 109 76 181q32 42 72 63.5t83 21.5q95 0 172 -83q33 -36 58 -84t41 -103t21.5 -113.5t-0.5 -115.5h-1q-5 -31 -12 -58q-2 -9 -6.5 -23.5t-14.5 -32.5t-26.5 -38.5t-42.5 -40.5
q-138 -110 -433 -111h-12q-29 0 -49.5 20.5t-20.5 49.5z" />
    <glyph glyph-name="uFED4" unicode="&#x641;" horiz-adv-x="686" arabic-form="medial" 
d="M474 956l-116 -116l-117 117l116 116zM346 529q-20 0 -42 -13.5t-41.5 -39t-32 -61.5t-12.5 -80q0 -33 31.5 -65.5t91.5 -60.5l11 -5q36 21 55.5 44.5t28.5 47.5t10.5 46.5t1.5 40.5q0 51 -12.5 80t-29.5 43.5t-34 18.5t-26 4zM-70 70q0 30 20.5 50.5t49.5 20.5
q51 0 93 2.5t78 7.5q-93 81 -93 184q0 66 20.5 126.5t58.5 108.5q39 48 88.5 74t101.5 26q48 0 91 -18t76 -53q13 -14 26.5 -33.5t24.5 -45.5t18 -60t7 -77q0 -138 -74 -226q42 -8 86.5 -12t92.5 -4q30 0 50.5 -20.5t20.5 -50.5q0 -29 -20.5 -49.5t-50.5 -20.5h-6
q-45 0 -87.5 3t-84.5 10q-43 7 -82.5 16t-77.5 22q-134 -51 -351 -51h-6q-29 0 -49.5 20.5t-20.5 49.5z" />
    <glyph glyph-name="uFED6" unicode="&#x642;" horiz-adv-x="1106" arabic-form="final" 
d="M735 861l-116 -116l-117 117l116 116zM978 860l-116 -116l-117 117l116 116zM737 463q-26 0 -56 -38q-20 -25 -33.5 -59.5t-21.5 -76.5q-11 -65 15 -97q11 -14 27 -23t34 -14.5t35.5 -8t30.5 -3.5q90 -4 148 -3q-4 91 -32.5 163t-65.5 115q-14 15 -35 30t-46 15zM887 -2
q-27 0 -59.5 1t-68.5 3q-156 11 -229 102q-65 85 -43 209q10 60 31 110.5t52 88.5q72 92 167 92q103 0 186 -92q61 -67 95.5 -164t38.5 -206q14 -1 23 -1h31q29 0 50 -21t21 -50t-21 -49.5t-50 -20.5h-6h-57q-6 -36 -20.5 -87.5t-42.5 -106.5q-59 -113 -153 -179
q-119 -82 -284 -82q-140 0 -249 55q-110 55 -172 158q-36 60 -52 132.5t-10 153.5q12 163 110 349l125 -67q-79 -148 -92.5 -276t40.5 -219q42 -70 118.5 -107t181.5 -37q214 0 309 180q19 35 30 69.5t17 61.5h-17z" />
    <glyph glyph-name="uFED7" unicode="&#x642;" horiz-adv-x="615" arabic-form="initial" 
d="M278 1029l-116 -116l-117 117l116 116zM521 1028l-116 -116l-117 117l116 116zM256 662q-10 0 -23.5 -10t-26.5 -29t-24.5 -47t-17.5 -64q-9 -54 12 -80q30 -36 108 -41q75 -3 124 0q-5 69 -27 131t-58 102q-11 13 -29 25.5t-38 12.5zM-70 70q0 29 21 50t50 21
q79 0 138 7.5t102 19t71 25.5t46 28q9 8 15 14.5t11 12.5h-72q-77 0 -143.5 24.5t-103.5 72.5q-10 13 -20 31t-16.5 42t-8 53.5t4.5 65.5q19 109 76 181q32 42 72 63.5t83 21.5q95 0 172 -83q33 -36 58 -84t41 -103t21.5 -113.5t-0.5 -115.5h-1q-5 -31 -12 -58
q-2 -9 -6.5 -23.5t-14.5 -32.5t-26.5 -38.5t-42.5 -40.5q-138 -110 -433 -111h-12q-29 0 -49.5 20.5t-20.5 49.5z" />
    <glyph glyph-name="uFED8" unicode="&#x642;" horiz-adv-x="688" arabic-form="medial" 
d="M364 934l-116 -116l-117 117l116 116zM607 933l-116 -116l-117 117l116 116zM346 529q-20 0 -42 -13.5t-41.5 -39t-32 -61.5t-12.5 -80q0 -33 31.5 -65.5t91.5 -60.5l11 -5q36 21 55.5 44.5t28.5 47.5t10.5 46.5t1.5 40.5q0 51 -12.5 80t-29.5 43.5t-34 18.5t-26 4z
M-70 70q0 30 20.5 50.5t49.5 20.5q51 0 93 2.5t78 7.5q-93 81 -93 184q0 66 20.5 126.5t58.5 108.5q39 48 88.5 74t101.5 26q48 0 91 -18t76 -53q13 -14 26.5 -33.5t24.5 -45.5t18 -60t7 -77q0 -138 -74 -226q42 -8 86.5 -12t92.5 -4q30 0 50.5 -20.5t20.5 -50.5
q0 -29 -20.5 -49.5t-50.5 -20.5h-6q-45 0 -87.5 3t-84.5 10q-43 7 -82.5 16t-77.5 22q-134 -51 -351 -51h-6q-29 0 -49.5 20.5t-20.5 49.5z" />
    <glyph glyph-name="uFEDE" unicode="&#x644;" horiz-adv-x="1040" arabic-form="final" 
d="M232 243q-21 -28 -38 -71q-14 -37 -25.5 -93.5t-11.5 -136.5q0 -71 29 -122t70.5 -83.5t87 -48t77.5 -15.5q33 0 72 4.5t77.5 16.5t74.5 32.5t63.5 53t44 77.5t16.5 105q0 56 -1.5 134.5t-4.5 168t-6.5 185t-6.5 187.5q-9 215 -19 450l140 6q6 -128 11 -264
q2 -58 4.5 -123t5.5 -133.5t5.5 -138t4.5 -135.5q3 -45 20 -79q7 -15 18 -29t26 -25.5t35.5 -18t46.5 -6.5q29 0 50 -21t21 -50t-21 -49.5t-50 -20.5q-50 0 -81.5 9t-58.5 24q1 -20 1 -37.5v-33.5q0 -90 -22.5 -157t-60.5 -114.5t-87.5 -78t-103.5 -48t-109.5 -24.5
t-104.5 -7q-73 0 -145 23.5t-129.5 73.5t-93.5 127t-36 185q0 99 17 172t37 122q24 57 55 97z" />
    <glyph glyph-name="uFEDF" unicode="&#x644;" horiz-adv-x="383" arabic-form="initial" 
d="M-82 70q0 29 20.5 50t49.5 21h6h34q82 0 115 33q37 39 36 147v19q0 32 -3.5 117.5t-8.5 213.5q-3 79 -7 147t-7.5 119.5t-6.5 83.5t-4 38l140 15q1 -11 4.5 -45t7.5 -86.5t8 -120t7 -146.5q5 -129 8 -215.5t3 -119.5q0 -13 1 -18q0 -27 -2 -59t-9.5 -65t-23 -65
t-42.5 -59q-75 -75 -216 -75h-34h-6q-29 0 -49.5 20.5t-20.5 49.5z" />
    <glyph glyph-name="uFEE0" unicode="&#x644;" horiz-adv-x="472" arabic-form="medial" 
d="M-70 70q0 29 20.5 50t49.5 21h6h62q42 2 61 5.5t30 12.5q21 16 28.5 50.5t9.5 71.5q0 2 1 49t2 121t1.5 164.5t-0.5 179.5t-3.5 166t-7.5 124l139 18q5 -37 8 -90t4.5 -116t2 -131t0 -134.5t-1 -127.5t-1.5 -109t-1.5 -79t-0.5 -38q0 -16 4 -40t18 -47q14 -22 38.5 -36
t73.5 -14q29 0 50 -21t21 -50t-21 -49.5t-50 -20.5q-72 -1 -121 21t-78 53q-15 -17 -27 -26q-40 -32 -83 -40t-80 -8h-78h-6q-29 0 -49.5 20.5t-20.5 49.5z" />
    <glyph glyph-name="uFEE2" unicode="&#x645;" horiz-adv-x="1047" arabic-form="final" 
d="M863 340l2 -15q3 -14 10 -36.5t20 -46.5t33.5 -47t50.5 -38q29 -15 66 -16h6q30 0 50.5 -21t20.5 -50t-20.5 -49.5t-50.5 -20.5h-8q-140 7 -222 112q-43 -78 -113 -90q-39 -6 -99 14t-162 62q-42 16 -80.5 32.5t-74.5 27.5q-12 4 -21 4q0 -2 -0.5 -4.5t-0.5 -4.5v-8
l26 -661l-142 -6l-27 661q0 4 1 20t6 36t17 42t35 39q20 15 53 24.5t84 -4.5q9 23 20.5 50.5t26.5 56.5q22 41 44 73t46 56q73 70 157 69q58 -2 105 -26t80 -69q26 -33 41 -75.5t20 -90.5zM456 246l22 -8l23 -9q33 -14 64 -26.5t58 -22.5q28 -10 42 -13t19 -5q5 5 14.5 19
t16.5 44q4 17 6.5 35t2.5 38v2q0 30 -8 59q-8 37 -22.5 57t-30 29.5t-29.5 11.5t-21 2q-26 1 -56.5 -30t-59.5 -88q-14 -25 -23 -49.5t-18 -45.5z" />
    <glyph glyph-name="uFEE3" unicode="&#x645;" horiz-adv-x="810" arabic-form="initial" 
d="M-70 70q0 29 20 49.5t49 21.5h1q60 0 101.5 19.5t72 51.5t53.5 74t45 86q19 38 37.5 73.5t42.5 64.5q64 78 156 78q108 0 179 -86q57 -69 69 -172q7 -49 2 -96.5t-21 -89.5q-20 -51 -54.5 -84.5t-79.5 -45.5q-81 -21 -181 19q-69 28 -145 83q-5 -5 -7 -6
q-107 -110 -270 -110h-1q-29 0 -49 20.5t-20 49.5zM359 232q66 -48 119.5 -69.5t88.5 -11.5q12 3 22.5 16.5t18 35t10 49.5t-1.5 60q-1 8 -6 30t-17 45.5t-32.5 41.5t-52.5 18q-29 0 -52 -33.5t-58 -103.5z" />
    <glyph glyph-name="uFEE4" unicode="&#x645;" horiz-adv-x="979" arabic-form="medial" 
d="M361 232q58 -43 107.5 -65t84.5 -20l15 3h2l3 2q23 11 37.5 55t6.5 104q-1 8 -6 30t-17 45.5t-32.5 41.5t-52.5 18q-21 0 -39 -18q-16 -17 -32.5 -45.5t-37.5 -73.5q-9 -19 -18.5 -38t-20.5 -39zM-71 70q0 29 20.5 50t49.5 21h1q51 0 89 14t66.5 38.5t50 56.5t40.5 68
l27 54q0 1 2 3q17 38 36 71.5t42 62.5q34 40 75 60q39 19 82 19q108 0 179 -87q44 -56 62 -135q24 -57 48.5 -96.5t48 -65t46 -39.5t41.5 -19q13 -3 24 -4t23 -1q29 0 50 -21t21 -50t-21 -49.5t-50 -20.5q-46 0 -84.5 12.5t-70 31.5t-55.5 42t-40 44l-3 -6q-19 -43 -52 -71
q-11 -11 -23 -18.5t-26 -13.5l-3 -1l-15 -6q-2 0 -3 -0.5t-2 -0.5l-12 -3q-75 -15 -170 23q-35 14 -70.5 34.5t-73.5 48.5l-3 -3l-3 -4q-106 -107 -265 -109h-9q-29 0 -49.5 20.5t-20.5 49.5z" />
    <glyph glyph-name="uFEE6" unicode="&#x646;" horiz-adv-x="1255" arabic-form="final" 
d="M702 653l-116 -116l-117 117l116 116zM1256 -1q-48 0 -90.5 11.5t-80.5 33.5q3 -54 -3 -110t-24 -114q-21 -66 -61.5 -120.5t-100.5 -93.5q-66 -45 -149 -68.5t-186 -28.5h-29q-94 0 -171.5 27t-137.5 79q-55 49 -90.5 116.5t-46.5 145.5q-6 44 -5.5 87.5t5.5 84t13 77
t17 65.5q23 73 48 124t43 77l114 -83q-14 -19 -34 -62.5t-36.5 -100.5t-25 -122.5t0.5 -126.5q3 -19 10 -44.5t20.5 -53t35.5 -54.5t55 -48.5t78.5 -34.5t105.5 -13h11q9 0 13 1q151 8 244 61t124 152q19 62 20.5 123.5t-8 117.5t-26 104.5t-32.5 86.5q-8 14 -14.5 29
t-14.5 31q-6 11 -10 17t-4 7l119 76q2 -3 16.5 -28.5t34.5 -68.5q39 -75 74 -118t66 -65t59 -28t53 -6q29 0 50 -21t21 -50t-21 -50t-50 -21z" />
    <glyph glyph-name="uFEE7" unicode="&#x646;" horiz-adv-x="462" arabic-form="initial" 
d="M391 857l-116 -116l-117 117l116 116zM-73 70q0 29 20.5 50t49.5 21h30q39 0 73.5 1.5t64 10t52 25t36.5 46.5q14 31 8 88t-29 132q-8 23 -18.5 50t-20.5 50q-11 26 -23 53l127 63q0 -1 6.5 -15t17 -37.5t22.5 -54.5t23 -66q66 -205 16 -320q-51 -115 -180 -151
q-38 -11 -75 -13.5t-69 -2.5h-55h-6q-29 0 -49.5 20.5t-20.5 49.5z" />
    <glyph glyph-name="uFEE8" unicode="&#x646;" horiz-adv-x="500" arabic-form="medial" 
d="M373 778l-116 -116l-117 117l116 116zM-70 70q0 29 20.5 50t49.5 21h12q120 0 174.5 42.5t54.5 128.5q0 41 -8.5 99t-24.5 113l134 38q19 -66 29 -133.5t10 -116.5v-4q0 -26 5 -55.5t18 -54.5t36 -41t60 -16q29 0 50 -21t21 -50t-20.5 -49.5t-49.5 -20.5q-72 0 -119 25
t-77 64q-45 -45 -117 -67t-176 -22h-12q-29 0 -49.5 20.5t-20.5 49.5z" />
    <glyph glyph-name="uFEEA" unicode="&#x647;" horiz-adv-x="714" arabic-form="final" 
d="M393 501q-26 -11 -57 -27.5t-61.5 -39.5t-57.5 -52t-45 -65q-1 -5 -2 -17t8 -23q5 -6 21 -15.5t51 -15.5q35 -5 79.5 -5t101.5 7q-8 42 -17.5 102t-20.5 151zM323 100q-184 0 -256 89q-20 24 -28.5 50.5t-9.5 51t3 45.5t10 35l1 4q29 60 73.5 106t92.5 79t93 54t75 32
q-5 54 -8 79.5t-3 26.5l140 29v1q1 1 11 -105q5 -54 9.5 -93l7.5 -65q11 -92 20 -151t16 -93.5t12 -49.5t7 -19q17 -39 45.5 -52t78.5 -13q29 0 50 -21t21 -50t-21 -49.5t-50 -20.5q-27 0 -64.5 4.5t-74.5 21.5q-57 28 -94 87q-45 -7 -83.5 -10t-73.5 -3z" />
    </font>
</defs>
</svg>
